<mxfile host="65bd71144e">
    <diagram id="OKlrIGLYL-MtTdUyoojL" name="Page-1">
        <mxGraphModel dx="1960" dy="1223" grid="1" gridSize="10" guides="1" tooltips="1" connect="1" arrows="1" fold="1" page="1" pageScale="1" pageWidth="827" pageHeight="1169" background="#FFFFFF" math="0" shadow="0">
            <root>
                <mxCell id="0"/>
                <mxCell id="1" parent="0"/>
                <mxCell id="2" value="" style="rounded=0;whiteSpace=wrap;html=1;fontFamily=Comic Sans MS;labelBackgroundColor=#3E6957;fillColor=#3e6957;" parent="1" vertex="1">
                    <mxGeometry x="510" y="360" width="390" height="210" as="geometry"/>
                </mxCell>
                <mxCell id="3" value="" style="rounded=0;whiteSpace=wrap;html=1;fontFamily=Comic Sans MS;fontColor=none;noLabel=1;labelBackgroundColor=none;fillColor=#c6c5d4;" parent="1" vertex="1">
                    <mxGeometry x="20" y="360" width="384" height="210" as="geometry"/>
                </mxCell>
                <mxCell id="4" value="Ethereum" style="text;html=1;strokeColor=none;fillColor=none;align=center;verticalAlign=middle;whiteSpace=wrap;rounded=0;fontFamily=Comic Sans MS;fontSize=20;" parent="1" vertex="1">
                    <mxGeometry x="197" y="360" width="135" height="40" as="geometry"/>
                </mxCell>
                <mxCell id="5" value="Gnosis" style="text;html=1;strokeColor=none;fillColor=none;align=center;verticalAlign=middle;whiteSpace=wrap;rounded=0;fontFamily=Comic Sans MS;fontSize=20;fontColor=#FFFFFF;" parent="1" vertex="1">
                    <mxGeometry x="570" y="360" width="135" height="40" as="geometry"/>
                </mxCell>
                <mxCell id="6" value="AMB Bridge Validator&amp;nbsp;" style="shape=hexagon;perimeter=hexagonPerimeter2;whiteSpace=wrap;html=1;fixedSize=1;fillColor=#F0EBDE;strokeColor=#d79b00;fontFamily=Comic Sans MS;rounded=0;" parent="1" vertex="1">
                    <mxGeometry x="390" y="594" width="120" height="80" as="geometry"/>
                </mxCell>
                <mxCell id="7" value="AMB Bridge Validator" style="shape=hexagon;perimeter=hexagonPerimeter2;whiteSpace=wrap;html=1;fixedSize=1;fillColor=#F0EBDE;strokeColor=#d6b656;fontFamily=Comic Sans MS;rounded=0;" parent="1" vertex="1">
                    <mxGeometry x="390" y="255" width="120" height="80" as="geometry"/>
                </mxCell>
                <mxCell id="10" value="Relays message" style="endArrow=classic;dashed=1;html=1;strokeWidth=2;entryX=0;entryY=0.25;entryDx=0;entryDy=0;exitX=0;exitY=0.25;exitDx=0;exitDy=0;endFill=1;fontFamily=Comic Sans MS;labelBackgroundColor=none;rounded=0;curved=1;" parent="1" edge="1" source="6">
                    <mxGeometry x="0.069" y="39" width="50" height="50" relative="1" as="geometry">
                        <mxPoint x="510" y="460" as="sourcePoint"/>
                        <mxPoint x="322.92857142857133" y="460" as="targetPoint"/>
                        <mxPoint as="offset"/>
                    </mxGeometry>
                </mxCell>
                <mxCell id="11" value="Relays message" style="endArrow=classic;dashed=1;html=1;strokeWidth=2;entryX=0;entryY=0.75;entryDx=0;entryDy=0;exitX=0;exitY=0.75;exitDx=0;exitDy=0;endFill=1;fontFamily=Comic Sans MS;labelBackgroundColor=none;rounded=0;curved=1;" parent="1" edge="1" source="7">
                    <mxGeometry x="0.0053" y="-40" width="50" height="50" relative="1" as="geometry">
                        <mxPoint x="350" y="565" as="sourcePoint"/>
                        <mxPoint x="322.92857142857133" y="400" as="targetPoint"/>
                        <mxPoint as="offset"/>
                    </mxGeometry>
                </mxCell>
                <mxCell id="12" value="5" style="ellipse;whiteSpace=wrap;html=1;dashed=1;fontFamily=Comic Sans MS;fontSize=12;fontColor=#FFFFFF;strokeColor=none;strokeWidth=2;fillColor=#DD7143;rounded=0;" parent="1" vertex="1">
                    <mxGeometry x="290" y="282" width="32" height="32" as="geometry"/>
                </mxCell>
                <mxCell id="13" value="4" style="ellipse;whiteSpace=wrap;html=1;dashed=1;fontFamily=Comic Sans MS;fontSize=12;fontColor=#FFFFFF;strokeColor=none;strokeWidth=2;fillColor=#DD7143;rounded=0;" parent="1" vertex="1">
                    <mxGeometry x="550" y="295" width="30" height="30" as="geometry"/>
                </mxCell>
                <mxCell id="14" value="2" style="ellipse;whiteSpace=wrap;html=1;dashed=1;fontFamily=Comic Sans MS;fontSize=12;fontColor=#FFFFFF;strokeColor=none;strokeWidth=2;fillColor=#DD7143;rounded=0;" parent="1" vertex="1">
                    <mxGeometry x="735" y="490" width="30" height="30" as="geometry"/>
                </mxCell>
                <mxCell id="15" value="" style="rounded=0;whiteSpace=wrap;html=1;fontFamily=Comic Sans MS;" parent="1" vertex="1">
                    <mxGeometry x="240" y="404" width="150" height="56" as="geometry"/>
                </mxCell>
                <mxCell id="16" value="" style="endArrow=classic;startArrow=classic;html=1;fontFamily=Comic Sans MS;entryX=0;entryY=0.5;entryDx=0;entryDy=0;exitX=1;exitY=0.5;exitDx=0;exitDy=0;rounded=0;curved=1;" parent="1" source="15" target="19" edge="1">
                    <mxGeometry width="50" height="50" relative="1" as="geometry">
                        <mxPoint x="377.57142857142844" y="400" as="sourcePoint"/>
                        <mxPoint x="444.05357142857144" y="540" as="targetPoint"/>
                    </mxGeometry>
                </mxCell>
                <mxCell id="17" value="Arbitrary Message Bridge Contract" style="text;html=1;strokeColor=none;fillColor=none;align=center;verticalAlign=middle;whiteSpace=wrap;rounded=0;fontFamily=Comic Sans MS;fontSize=12;" parent="1" vertex="1">
                    <mxGeometry x="255" y="413.5" width="120" height="35.5" as="geometry"/>
                </mxCell>
                <mxCell id="18" value="" style="group;fontFamily=Comic Sans MS;fontSize=11;rounded=0;" parent="1" vertex="1" connectable="0">
                    <mxGeometry x="525.96" y="404" width="147.03999999999996" height="60" as="geometry"/>
                </mxCell>
                <mxCell id="44" value="" style="group" parent="18" vertex="1" connectable="0">
                    <mxGeometry width="136.04" height="60" as="geometry"/>
                </mxCell>
                <mxCell id="19" value="" style="rounded=0;whiteSpace=wrap;html=1;fontFamily=Comic Sans MS;fillColor=#d5e8d4;strokeColor=#82b366;" parent="44" vertex="1">
                    <mxGeometry width="136.04" height="60" as="geometry"/>
                </mxCell>
                <mxCell id="20" value="Arbitrary Message Bridge Contract" style="text;html=1;strokeColor=none;fillColor=none;align=center;verticalAlign=middle;whiteSpace=wrap;rounded=0;fontFamily=Comic Sans MS;fontSize=12;" parent="44" vertex="1">
                    <mxGeometry x="14.580000000000041" y="13" width="111.46" height="30" as="geometry"/>
                </mxCell>
                <mxCell id="22" value="" style="shape=umlActor;verticalLabelPosition=bottom;verticalAlign=top;html=1;outlineConnect=0;fontFamily=Comic Sans MS;fontSize=13;fontColor=#FFFFFF;strokeColor=default;strokeWidth=2;fillColor=none;rounded=0;" parent="1" vertex="1">
                    <mxGeometry x="470" y="314" width="23" height="46" as="geometry"/>
                </mxCell>
                <mxCell id="23" value="" style="shape=umlActor;verticalLabelPosition=bottom;verticalAlign=top;html=1;outlineConnect=0;fontFamily=Comic Sans MS;fontSize=13;fontColor=#FFFFFF;strokeColor=default;strokeWidth=2;fillColor=none;rounded=0;" parent="1" vertex="1">
                    <mxGeometry x="484" y="650" width="23" height="46" as="geometry"/>
                </mxCell>
                <mxCell id="24" value="handleBridgedTokens()" style="endArrow=classic;dashed=1;html=1;strokeWidth=2;entryX=1;entryY=0.5;entryDx=0;entryDy=0;endFill=1;fontFamily=Comic Sans MS;labelBackgroundColor=none;rounded=0;curved=1;exitX=0;exitY=0.5;exitDx=0;exitDy=0;" parent="1" source="15" target="34" edge="1">
                    <mxGeometry x="-0.1045" y="38" width="50" height="50" relative="1" as="geometry">
                        <mxPoint x="245.6414285714286" y="431.1428571428571" as="sourcePoint"/>
                        <mxPoint x="160" y="432" as="targetPoint"/>
                        <mxPoint as="offset"/>
                    </mxGeometry>
                </mxCell>
                <mxCell id="31" value="" style="group" parent="1" vertex="1" connectable="0">
                    <mxGeometry x="33" y="500" width="92" height="60" as="geometry"/>
                </mxCell>
                <mxCell id="29" value="" style="rounded=0;whiteSpace=wrap;html=1;fontFamily=Comic Sans MS;" parent="31" vertex="1">
                    <mxGeometry x="2" width="90" height="60" as="geometry"/>
                </mxCell>
                <mxCell id="30" value="ERC-20 Token&lt;br&gt;Registry" style="text;html=1;strokeColor=none;fillColor=none;align=center;verticalAlign=middle;whiteSpace=wrap;rounded=0;fontFamily=Comic Sans MS;fontSize=12;" parent="31" vertex="1">
                    <mxGeometry y="12.25" width="92" height="35.5" as="geometry"/>
                </mxCell>
                <mxCell id="40" value="increment balance" style="endArrow=classic;dashed=1;html=1;strokeWidth=2;entryX=0.5;entryY=1;entryDx=0;entryDy=0;endFill=1;fontFamily=Comic Sans MS;labelBackgroundColor=none;rounded=0;curved=1;exitX=0.5;exitY=1;exitDx=0;exitDy=0;" parent="31" edge="1" source="29">
                    <mxGeometry x="-0.0092" y="4" width="50" height="50" relative="1" as="geometry">
                        <mxPoint x="86.5" y="-38" as="sourcePoint"/>
                        <mxPoint x="47" y="110" as="targetPoint"/>
                        <mxPoint as="offset"/>
                    </mxGeometry>
                </mxCell>
                <mxCell id="32" value="" style="group" parent="1" vertex="1" connectable="0">
                    <mxGeometry x="85" y="404" width="88" height="56" as="geometry"/>
                </mxCell>
                <mxCell id="33" value="" style="rounded=0;whiteSpace=wrap;html=1;fontFamily=Comic Sans MS;" parent="32" vertex="1">
                    <mxGeometry x="1.9130434782608696" width="86.08695652173914" height="56" as="geometry"/>
                </mxCell>
                <mxCell id="34" value="Omnibridge &quot;Mediator&quot;" style="text;html=1;strokeColor=none;fillColor=none;align=center;verticalAlign=middle;whiteSpace=wrap;rounded=0;fontFamily=Comic Sans MS;fontSize=12;" parent="32" vertex="1">
                    <mxGeometry y="11.433333333333334" width="88" height="33.13333333333333" as="geometry"/>
                </mxCell>
                <mxCell id="25" value="8" style="ellipse;whiteSpace=wrap;html=1;dashed=1;fontFamily=Comic Sans MS;fontSize=12;fontColor=#FFFFFF;strokeColor=none;strokeWidth=2;fillColor=#DD7143;rounded=0;" parent="1" vertex="1">
                    <mxGeometry x="19.99999999999997" y="590" width="32" height="32" as="geometry"/>
                </mxCell>
                <mxCell id="45" value="" style="group" parent="1" vertex="1" connectable="0">
                    <mxGeometry x="786" y="500" width="104" height="60" as="geometry"/>
                </mxCell>
                <mxCell id="46" value="" style="rounded=0;whiteSpace=wrap;html=1;fontFamily=Comic Sans MS;fillColor=#d5e8d4;strokeColor=#82b366;" parent="45" vertex="1">
                    <mxGeometry width="104" height="60" as="geometry"/>
                </mxCell>
                <mxCell id="47" value="ERC-677 &lt;br&gt;Registry" style="text;html=1;strokeColor=none;fillColor=none;align=center;verticalAlign=middle;whiteSpace=wrap;rounded=0;fontFamily=Comic Sans MS;fontSize=12;" parent="45" vertex="1">
                    <mxGeometry x="11.146133490149989" y="13" width="85.20905615995295" height="30" as="geometry"/>
                </mxCell>
                <mxCell id="51" value="" style="group;fontFamily=Comic Sans MS;fontSize=11;rounded=0;" parent="1" vertex="1" connectable="0">
                    <mxGeometry x="736" y="402" width="93" height="60" as="geometry"/>
                </mxCell>
                <mxCell id="52" value="" style="group" parent="51" vertex="1" connectable="0">
                    <mxGeometry width="93" height="60" as="geometry"/>
                </mxCell>
                <mxCell id="55" value="" style="group" parent="52" vertex="1" connectable="0">
                    <mxGeometry x="3" width="90" height="60" as="geometry"/>
                </mxCell>
                <mxCell id="53" value="" style="rounded=0;whiteSpace=wrap;html=1;fontFamily=Comic Sans MS;fillColor=#d5e8d4;strokeColor=#82b366;" parent="55" vertex="1">
                    <mxGeometry width="90" height="60" as="geometry"/>
                </mxCell>
                <mxCell id="54" value="Omnibridge &quot;Mediator&quot;" style="text;html=1;strokeColor=none;fillColor=none;align=center;verticalAlign=middle;whiteSpace=wrap;rounded=0;fontFamily=Comic Sans MS;fontSize=12;" parent="55" vertex="1">
                    <mxGeometry x="6.645692443399028" y="13" width="73.738606292267" height="30" as="geometry"/>
                </mxCell>
                <mxCell id="59" value="7" style="ellipse;whiteSpace=wrap;html=1;dashed=1;fontFamily=Comic Sans MS;fontSize=12;fontColor=#FFFFFF;strokeColor=none;strokeWidth=2;fillColor=#DD7143;rounded=0;" parent="1" vertex="1">
                    <mxGeometry x="33" y="440" width="32" height="32" as="geometry"/>
                </mxCell>
                <mxCell id="60" value="6" style="ellipse;whiteSpace=wrap;html=1;dashed=1;fontFamily=Comic Sans MS;fontSize=12;fontColor=#FFFFFF;strokeColor=none;strokeWidth=2;fillColor=#DD7143;rounded=0;" parent="1" vertex="1">
                    <mxGeometry x="172.99999999999997" y="378" width="32" height="32" as="geometry"/>
                </mxCell>
                <mxCell id="21" value="3" style="ellipse;whiteSpace=wrap;html=1;dashed=1;fontFamily=Comic Sans MS;fontSize=12;fontColor=#FFFFFF;strokeColor=none;strokeWidth=2;fillColor=#DD7143;rounded=0;" parent="1" vertex="1">
                    <mxGeometry x="690" y="400" width="30" height="30" as="geometry"/>
                </mxCell>
                <mxCell id="63" value="" style="shape=umlActor;verticalLabelPosition=bottom;verticalAlign=top;html=1;outlineConnect=0;fontFamily=Comic Sans MS;fontSize=13;fontColor=#FFFFFF;strokeColor=default;strokeWidth=2;fillColor=none;rounded=0;" parent="1" vertex="1">
                    <mxGeometry x="65" y="622" width="23" height="46" as="geometry"/>
                </mxCell>
                <mxCell id="65" value="1" style="ellipse;whiteSpace=wrap;html=1;dashed=1;fontFamily=Comic Sans MS;fontSize=12;fontColor=#FFFFFF;strokeColor=none;strokeWidth=2;fillColor=#DD7143;rounded=0;" vertex="1" parent="1">
                    <mxGeometry x="780" y="594" width="32" height="32" as="geometry"/>
                </mxCell>
                <mxCell id="66" value="transferAndCall()" style="endArrow=classic;dashed=1;html=1;strokeWidth=2;entryX=0.5;entryY=1;entryDx=0;entryDy=0;endFill=1;fontFamily=Comic Sans MS;labelBackgroundColor=none;rounded=0;curved=1;" edge="1" parent="1" target="46">
                    <mxGeometry x="-0.6" y="-52" width="50" height="50" relative="1" as="geometry">
                        <mxPoint x="838" y="610" as="sourcePoint"/>
                        <mxPoint x="805" y="560" as="targetPoint"/>
                        <mxPoint as="offset"/>
                        <Array as="points">
                            <mxPoint x="838" y="590"/>
                        </Array>
                    </mxGeometry>
                </mxCell>
                <mxCell id="67" value="" style="shape=umlActor;verticalLabelPosition=bottom;verticalAlign=top;html=1;outlineConnect=0;fontFamily=Comic Sans MS;fontSize=13;fontColor=#FFFFFF;strokeColor=default;strokeWidth=2;fillColor=none;rounded=0;" vertex="1" parent="1">
                    <mxGeometry x="825" y="626" width="23" height="46" as="geometry"/>
                </mxCell>
                <mxCell id="69" value="&lt;font color=&quot;#ffffff&quot;&gt;onTokenTransfer()&lt;/font&gt;" style="edgeStyle=none;html=1;entryX=0.75;entryY=1;entryDx=0;entryDy=0;jumpStyle=none;dashed=1;strokeWidth=2;labelBackgroundColor=none;" edge="1" parent="1" target="53">
                    <mxGeometry x="1" y="50" relative="1" as="geometry">
                        <mxPoint x="830" y="500" as="sourcePoint"/>
                        <mxPoint x="-4" y="-8" as="offset"/>
                    </mxGeometry>
                </mxCell>
                <mxCell id="70" value="&lt;font color=&quot;#ffffff&quot;&gt;requireToPassMessage()&lt;/font&gt;" style="edgeStyle=none;jumpStyle=none;html=1;dashed=1;labelBackgroundColor=none;strokeWidth=2;" edge="1" parent="1" source="54">
                    <mxGeometry x="-1" y="-43" relative="1" as="geometry">
                        <mxPoint x="670" y="432" as="targetPoint"/>
                        <mxPoint x="15" y="2" as="offset"/>
                    </mxGeometry>
                </mxCell>
                <mxCell id="8" value="Relays message" style="endArrow=classic;html=1;exitX=0.25;exitY=1;exitDx=0;exitDy=0;entryX=1;entryY=0.25;entryDx=0;entryDy=0;strokeWidth=2;fontFamily=Comic Sans MS;labelBackgroundColor=none;rounded=0;curved=1;dashed=1;" parent="1" source="19" target="6" edge="1">
                    <mxGeometry x="-0.0625" y="40" width="50" height="50" relative="1" as="geometry">
                        <mxPoint x="510" y="460" as="sourcePoint"/>
                        <mxPoint x="460" y="510" as="targetPoint"/>
                        <mxPoint as="offset"/>
                    </mxGeometry>
                </mxCell>
                <mxCell id="9" value="Relays message" style="endArrow=classic;html=1;exitX=0.25;exitY=0;exitDx=0;exitDy=0;entryX=1;entryY=0.75;entryDx=0;entryDy=0;strokeWidth=1;fontFamily=Comic Sans MS;labelBackgroundColor=none;rounded=0;curved=1;" parent="1" source="19" target="7" edge="1">
                    <mxGeometry x="-0.108" y="-43" width="50" height="50" relative="1" as="geometry">
                        <mxPoint x="598.9732142857144" y="470" as="sourcePoint"/>
                        <mxPoint x="545" y="565" as="targetPoint"/>
                        <mxPoint as="offset"/>
                    </mxGeometry>
                </mxCell>
                <mxCell id="39" value="unlock tokens" style="endArrow=classic;dashed=1;html=1;strokeWidth=2;entryX=0.5;entryY=0;entryDx=0;entryDy=0;endFill=1;fontFamily=Comic Sans MS;labelBackgroundColor=none;rounded=0;curved=1;exitX=0.25;exitY=1;exitDx=0;exitDy=0;" parent="1" source="33" target="29" edge="1">
                    <mxGeometry x="-0.5117" y="35" width="50" height="50" relative="1" as="geometry">
                        <mxPoint x="268.6414285714286" y="441.1428571428571" as="sourcePoint"/>
                        <mxPoint x="187" y="440.875" as="targetPoint"/>
                        <mxPoint as="offset"/>
                    </mxGeometry>
                </mxCell>
                <mxCell id="72" value="" style="shape=image;verticalLabelPosition=bottom;verticalAlign=top;imageAspect=0;image=data:image/png,iVBORw0KGgoAAAANSUhEUgAAAI0AAACMCAYAAABBAioAAAAAAXNSR0IArs4c6QAAIABJREFUeF7cvQm4bllZHviutdce//FMd665mLEbDS1KWhABW4yIAmobwDg1adNBEzGGfoIKDpFgFG0NPtKtphvt7qhJK6hEo+BAOg4hNhQoVQUUVbfqTuece84/7Xmv1c/7rf2fc25ZCJSMHp7DuXWHc/5/73d/w/u+37cU/oZ/rL75pnPZhcnn2qz8nMIVT3S6e2aUxDe3ZQvttHwqp+CUA/9ntYVTHaytMRxlQJTAVjWKvAKgobUBnIZzgOK1c3gAcL+vnPpzBXdXp+yfDf7pxUt/ky+rvO+/SR+LL77jyVa3X5zHi789Ojf6bwenswtIOtRhCRdZ3m9Ya6E6DW0NAhcATgHKwSoLS/DoGo1bYrw5BtIBsCqxWuSACxCoCM4q8H/y7zx0jj74X065B6HcO+u8/Y9jbPy++t677vqbdI0/60HDBz5/1p1faa36cqXcy5UGGlPBbrbYuHkEbETo7BKVLhFmodzjYlUi0gm0MwKcdaQR0GgLG5SocICNM5tANgZmOZaHK2iEApqucdAg2LQHjwSck8ghAFs0eYtJsIO9u6+hutK9yRTxb55+9sW3qtfAfjaD6LMWNPNn3vl8rfXXAPZlcss0/5+3zqEOC0wfN4Le0kAG1N0Ktapg4lDSSlO0iHWKgICxgUQLpifLtKQ7tKZAgT3s3LwDDDeAvTmWBytoFyFQMZrSwqgIimFLoo0POGvgOAFfg3pZYyM5i4N795BfLGGKCONwClt3b7ZO/fL4ne9/62cjeD6rQDN/1m2PQxd8I4Bv0YHacXxgFWPNuhaxUAqowgI7Tz0LpAWcaVGjRqtaAQashmuAGKlEGe0CDzVl0ekOnW7Rhjly7OHMbQTNJrA7w3xvicDFMEjQlA6hjqHWqW2dogQ4TmqiFhXqvMZmdh6H9+5heX8OU8SYRhtoy07A7ZTbteh+VgfuX4/fcd/dny0A+qwAzfLZd3yZc/rbtFNfuX6qm7aGCgATayBwKOoCneqwsTVBeNMEGC1RR7mAgNGjUwQYoG3gI0wd+F+rEEorqBBoVIMaJUo9x/YTt4AUQANg3uDyhy5hFG8IaGytgZYFdOCjDSPVOkkpSGpScYembJA1I4T1CB/+kw9hjCkyN0C1rBFFYR/dWHg7wLm3OK3eOPmdD/zWZzp4PqNBc/icO79WO/yAgnos6w5eW6kfCADtAOPQqQaVLeGMxWCSYbA9ATYMunghxS+B5HQnBS5vbkCgdAZBa4BOIVABlNHoggYVStiwhRo0GN02ABIANYBFiysfuopBOEHoUjgBTXCU2tbF8HEH1gJxh65qj0DzwH/+MAbdCJkdoMkbhGHYd2vSs50opNU9ge2+J3vHfb/0mQqez0jQXPzyW16UtcE/CTv9NOlTCJh1tcnuRlkEsZIokncrlK7AYCPF5oUdYJIBukQTLFGbRjoiAZly8n2kY7IGoQ1hGwutFXSoULgVcrtCNDEYnoqgNy0QMdJoIAeufvAaUj1E2CVQbfgw0PDF+YjBT6Y5goaRZtiOEVZDXH73JYR5jNQOYCuLIAgEa/L6TpTRfKfaWXT18o/N5qnXZ29577/7TAPPZxRorj/7pi/Kjfoep/RzB12A0HoORepMiTJ9/aI66AQobI7crRAMFLbObyA+twFECmiWKHWDNvARhk+y6kFDwARdgFhFaOsGKmBqsljaOXK3xHAnxfCWDcAsAEPQGKA22P3gNUQ2hWljBF0E1UcaD2cP5GPQtLARQdNibCcwRYbDew5R73VIukx+vlJMacf/zr9H38IrdOi6FXQywe4q++3bvuFbflD9D9/+h58p4PmMAM3ieWd28i79QauCl/MpCxwQOo3A9hexJ9LkImsWrC1s0GLZzWGTFhvnJxidnwADdjMlyq6GDULWvD70C+IctGN64vfVMCyAOwtlHNqgxgozNGGJ8dkR4gtToJsBjFBdBHQJrn/wGlQVIqgjKaKZnjwx6MHsAeOJQUYaG1vp0sbYQLBKUF6sMHtgibhNwO/ANu5G0PQRVTijFo0iLxRD16eQPP0ZiH7olW/6QFG8+jGjx+x+usHzaQfN6llnX16G+icqnSYkz9LWwlgnT+L66Vu/SM/YdlJ/tEGDOigQbRps3TwFNiNAFZKuWnK3QQbH7oY3vm/FPWg8cHTrEJgACDoUWKIKlzBTjcGpBGojhnOFkICB5fcdYvbBa7ArDV2FSNUASgrhHjR9NCOgpXPSLbrQoik7TPUm9DwGdhWu3LOLsI4xDIfo2rYHjQecRBip2xScbtEEKwRdjHF1FlfP3ILTb34D7l2uyg2z8x070603fTqB82kDjXvG6dvqMHzDKtAvaDS5Eo2wC5A0WiJNxxvwML5V+A8+yUGDLm6RbIbITiXApgHiCpXK0QQVoFlzZIAjmXcSNICRSKPQFjXiQQzoBov2AG7YYHQug9oM4FQFFwFtY31UMBMsPnAN7dxBlQaZHkJ37L70URQjWHykaSUttsaiLjpsBltQixg4jHH5PRdhqgiTZIK2+cigIcdTmRVGeoj4YBsfjse49a0/i4vKYaJOwajs1xpV/eNpmt736QDPpwU07ktu/abWlW+sAp3kJoJVbIMdwk4jlrBP7oSEm08vniwj8dai040wvnoAbF2YQp0ZAGRwuwU60yBIeCMDNDU1IhYlvuXiwxz0kYaNV5nnGEwzWF3isNpHMHWY3LoJDB3K6hBRGqNtO4QuhIo3sLz3KuqZgypiDIKx1DSMXEAHrAHTF8NklbvQoc4bTKNNqHkArFJc/LP7BDQb6Sba0sq/PyYE15U+qaRG0tNWugVcTvGhIMHtv/rTmG1sILRnEZkIZYPSBN0/SCPz859q4HzKQTP/0gs/o6Be3tgWnVICGALkKHWwlulCmDZDGERodYVVO0dlCqiMtUKNUq1w++feCQS1AEkAtS5E2cewKzFavvL7MuRLSmL3JDfaQjGcmQ7L9hB64DC6MAYyi04VCDKDosyRjoZoFwsYlQBLg937ZojaDSRqAlfxezGNVlKDSJQRvoatNNC0JQaDAdqiRdCGMGYDD77rXgR5CFNGCJsYpo3kAeEHeSSRMHQr3y9ipM2BoT2DS6MhBt/xQkye99Vw7hY4C9gVYDJg2T34plFy09//VALnUwaa5XNu/5wuaH/WKvw3vJmdXT9j/qauby57B3YnI72FqqglemDQYqVmmHV7CKcK03NDTE4Ppa7xaYHk2FpE1LDaoTGMTE5SSEA1uweNLx86VtoougVaU2KwnSLaSQFTodU1zDBGsVohHWZolzMYtmorg70PLxGUU6RqQ7gaTZioAlB8HUyDAZxjkavRdSWSJEbXdEIiGqS4fPcl1Pst0maAsEwQNYknGqHQ9gU+35NSLV8egjpAXA+xOx0j+cbnYfLil8Kp29Hwz3Ig0BbILuI//eh3/+ntb/+Nbznzm6tPiTD6KQFN/pzbX+i0+7cdWJP4SOBBs+ZgjotA4SmswcBsoK4bWNPAZS2W7gCFXmB0JsHWrVtwAW9wI8Sd5zk8aAhAfv/WsMAkA7wGJCON524FaKbDYXEd8STA5GamJT6rOaxpoWODsiqRxDG6YolAx0ARYvZAAbsYIMGUP0D4FKXKG0FjyQiSJa6FA+LrMQjR5RbF9Rp7H7qOoR3D5DHCNobpQh9pToCGANRKI7EhwnmH1fYpNH/nWdj+ln+AKryAUmmYms8SS/4P4vdf8XfxlGuXMFnZF6l3XPuk8zqfdNCUz7n9HzvlfkyAwgpF+AkPmrW9wBNaa8aXXwNolqBpgkaVuF7soksqbFwYYXQ2A1K2tZXUNwzpvm7xN8jDQsEZ3jjPfXiw+A8lwO3k++bdEuPTA8Rs100p6Y51b9OUcE4hCgK4poRCCNQJ8odKFHsUEjakqzoGjU9PEml60DBadF0j9QeliuKwQGIz3P/eixh0YwSrEGGb9KAh0H2rzkjTiQ5qMNQhgt1DuNPnsPfUL8CFf/LPsIwnWAZDsN7fsTVwz9vxp9/99/HE2CBtHQ7L4Du33vGBN3wy09UnFTTVc2//Fxbuu70gqND5LOJvqmSnk5HG32BPlSnUtkM6TlHaHPv5LtJNg/NPOA9MA1TFLoLUM8K+ljgGoH/KNRQ9En3K8jDlZ2+w0i0qVwgpODw7AsZszVee54kclgfXkUQDAZvmjSFo2hTtlQYHD3USaYxLoMGIUALoxdAToAkCi7ouEUcJAmWQH+TIzASX/+IS1NIgLBJEQhSG0rp7W4YHTasVOpNgyIhy9SHorXO4dOffwq2v/WEcDhMchAPohcUtXQX8m3+FK7/4JozHIxEjGudgu+7127917z/9ZAHnkwaa+jm3/YzV7uU+DvC2ebeb//VJ0PSJpQcMaw6G6ibsxM7QKtYYCtOzIySnBkBUSaekIs/Z8GL38OttCp4/ofdlzSZ7Jpm1z3EHxrZ9fHoIbKeALmBVDj0ygG4xP5xjkIxhmxah7/8BNwCudbh2X4HITcRa4QvhUmoQD0vWNKkvvI1DU5eIogisaGiTiDDA7OIMi4dWSOrBUaTh6113iOR4Gq3RhRkGCoj3LqLLNnDp/FNw5w+8HoenR9gNAqSzFhcefBD4qX8B3P0erNIEBZtFVbMKR9wFbxr/zr2flAL5kwKa/Nm3/YIy7iVyIQUovRIsYcYD6OSNPk4dvjVughZFVGDlloiHIU6d30J4KgNjsnUruNBbGAgaLxIeRy1CUApPR+sCf86Jll2RSeaTTCBqpGfGwIhFFluRSuqc2tVoW4skHKEtG8QsOehkUGNg3+HK3TPEbow0GB6BxgPSwZEXcokUwkHQoWsrBIERw5ZqFWwOYKlx//sexMhOEfXpicwy46W06j1obDRE7Fpks4ewUhF2Tz8Fj/3+12F562lc6xqcXTZo3/ZbSP/PN8NUOVZxgEVo0bULpFohrsXy8Yuj3/nASz/REecTDpr8Ged+QQ2zl1jLIg3SHq5TBm2S/tdrq6SPMmvGds2pNKbGgb6OLm2xsTPBlgiRodxc2+Vyc1v4jkW+ZQ8a/wMVAmcQdh40D+d4uqAW2WC4lcIw0kQtpLeNOlRNjrJpkaYRCTTURYUk7Ct3NQKuA5f/fF/SU2oGUEctN6s1/myavBhpCJoWtmMxTH+pgjEJiv0CqRrhnj+5BxO1ibjxNQ1BTo3sKEXx30RDGFsjzfcwaywOzzwJj331D6J9zG3YL1c4XRS48q9+Gjt/+EfCbBexwtx0KFbXsDkYwBR8XIBVbH/xzG/c9wkFzicUNO65t/5cHgTf1DAB2a4vPgkQ2iIZ4teAoUE7kNBtXYu8yCXExEkkyWvWHaIaFxieGWBzZwPIArh2haJjRPAKtzLHZnBf5h7HKzFXVQFMMhBGuChmKLolzEAjGmq4uEV6fsMXvvLJgrqVYtQXtBpdY2CbDhlZY5rKXQq4DeT3zrHabzGKJ33LTcM5QcMGPISzmTwImt2TsmjaBrazSKIMWmXo9iocPjjH6lKJzWgLoY1RrWq0tkMYG7Fy5HUNpyJMhwPo/AD7VY1rox183rf/E8zveKLUL7jrj/HeH3sDTj94gJ3NbRyqCk2qhDdSdYOsC+n8wCIRQP/8+V//8Dd/oiLOJww09Qtu+18WZfeKtlPI0gxdXfgnsQfLDaAhFxMYKWA716BzLbRRMBH5jQZzO0N4IUCyHWG8MRbl2rYFqraACh1MFMDyRklquiG5SaQhYRZ1sQCJMUmMVUxrcYdkYhBPDIKNxANG2nYWsr0MIM9ngK41sK1FmhkgZzGcAXaM6r4V5rs1htHYd2VC7nnQUHvwoGFN5cHUkcTsOgFNQNfffo3F5ZXUNZNgQ15nU3D6wYodlSm3ovquDJIoRmAbmOkEf75c4il/95uB53yVROarP/I9OHznH+KmcAvZZIpZeV1YaDouNPW7iqWYwzzm+wIGVfCTG7/9wW//RADnEwKaxfM3v7cd7Lx2seoQlBajOIFtPGikk5EIs/bT+mgTGI2yLiTNhEmAIGLkIJPToYlKDO/IEEwU4iwRw1XblGhtjSDU8kTWNW/KkUhwnPb4nFstxvG6LFG7Ciq2aMMaNmyQboRITg0B0wpgWPh6wHgLpv8I0HQBYB1iemoqplqCZoT2gRLzaxVSs65pCChWJI8MmtY2cM4hMrSKxmgOG+TXKswuLpHZIcI2gqsJvgAmNHCBRdPUklvSdIC6sTCTCe6d7+K//tb/EXjG81G87W249+d/HBuLOU5t3wYdGMyKXXExamWgaS6rWR85LAgavvomQNSG3zf43fd//18XOH9t0My/NPuWMjL/W5lsy4WNS4egbmA0tRUf6k+CRiKDgtz8vKIiXSNIFBwLR9UgHcRItyOE5wK4tENgFKzt0DQVGRaEYQATGTQ1b5bvxjwg+9TXt/GhDlFVBSpXirdFZVa6sGwzhtqMAdZGPWCYwqQtl8jIXwVorPe8GNVANaT2B0A3BK50mF0tELLldg6a3YrETHZOEWAzeT38d9ZW6JyPiJREKHJ2Swc7B/Y/PENYxQhK3uQAgQ4RRqHna7oGtmlgwgQtEnRRjL12gce98MXA9k34/Z//17hjeQ2bXYsuGCJvGS1zRBHdiIZ9N1IdSRe6inykSRqDqDUI2/Bbo997z8/+dYDz1wJN85wzX9xEzTtyHWBlhlAqRUqVuu2gXSM8xnE903dNvflaRxpVV6DTtbCwlS1EC9o+s4nBLVtw8RxtyGjiJLzbjk+7gzEBQmPk944A87AoJqW19ZxMDarfJcKJFoOV3giB2MJ1q55NJmCO/On9DFSAmjNOgRZwUUwVhbTJgOsaq8t5L1gS/wwT7JwokEZwjgUyQVOLlEDQaMMajrM1nJ/RCMoIB/fP4eYKdqVEFI3DRP6OFMO2QVsXqBqH4fQmOBNjVs6xcf4MrlUlZteu4s40RlzVWCxKNOgQDCQwQtchjDOIyPVoiyL0bgECJupCRht0Qfes9Hfe+3uPFjiPGjTLr7ztNKrVlY4KdTJACYOc4pwzGCUpXJP7SHNUBPf8jDROFjpSwsFQkKxVKV+jgcGpc9vQF8Zo6itgF8X2ywl77EtdKan1SfLOpz53ItIQXEwLmvYGVaMOKsRTg/T0ABgRUTk6xWLTpyQh8WSKru/qqJKT6YkM6uIQEYlC3pU6YWWJ8qEFrAiWTCt0nq8jTQxYD5qQSnWTS+Rg2pH6ijbPOkTkRlhdXKDca9DMOkRIBDT8YH3HGqmullIMDyc343BeAbZFOgyxn1/BxsYE3apD3Cm4fIlkEKNKgWVeInUDJCqGa8ksW9TU4BgxBTCMNj6azQbLM6ffct/VRwOcRw2a3a+59S227J5P/STVCYLOomgbrAKmD1LkNYyQNGvLpsh73oFP6j90wpnUuoQ1NeKxwXh7CDOOgaRF7q4LO0pIBJpTA8zXWtx2/LY0hHtGuQfNiVbet+LeRsEoRuY32YqBSQDEDSw1pj41kRcS9ZveGLH60Vqh0ZKNTUOUi30kUl1ygCoByiGaB+doVky/a9B4LsqRozkBmrpZSeQIZd7KScHLwjcKNmCvVJhfWqLcrxH3oLHWoekIZpKFNaJ4gMZOsDioMAoSbExDNPoK5nWOpaVwGmO83Ec6inAQAbOywXa4CS3PGrtB64VbMdSHCDuDuPHF9jKp37r963f76Y6P8+NRgebqiza/d9aq1w7DKaZFBr1sEbEuyCLsGovDcoGNOGB37CcYZYqRLJm3JYj8H9GsVKIKVqIlTc+OkZ5lG2yxXO3BxY3UOYwqYWAkJZFp7ToSWJ0AiF3K8cDacU0jrXPUIm8XIguMtgcIWMeEDWxQCDlIUEktswaNRJr+U0ATwKQRisU1JEZDmZQDVUA9QvPgEtWCCjoVap/afCz0KYoiacRo0RSogw5hwhpKyxyUURpZPAWuNZjfn6O8YpFgAJNEqJsatmXkahFlAXKaZqoIW5MziFuNxeFlTLZq7C5nUNPboBqF+OAy0iTAfghUVmEn20ZxmCMOoyOTu5/EoPksQNgGov5XUYPQtN83+X8+/HEXxh83aNzX3/El91764O+qM6dE2r9wmELT8BRY5LHF9axDbWoMww667uCqCEGXInJDREEM6ohOl6j1DNfLy6jjHBs3jTChLzfTqGQ0hdGYmo6vN467pJ6NoZgYxR5ADW+8htEGxtCaSQtnjcvL+xFPQwynGaJhBMQ0HrdA6KMcW33v6luLmn1qEtGTdEDs0yitD2yfmTaoSLdDoBljfu8BbJUgxFA6Iz7ZVbkUL8wwiqAKgtJhkbRolUHYsBW3sGYudtbUnMHBn1xB8NAGVJlCU1NrcgyCCPPZAeIBzWlSxXlZRGQWGr4qr+LLhKdCJCSqRRP49C9LDWS2i74edaPfqNfopOw3Gq5tESs8e/rW+9/+8QSbjxs0iy8d3mVH8ZMPFPNjgrOzhLy/zCCt4g7Xsxp1WCFjamFH29B9P0DYDcQioCnu6RwruwuX5Yi2gex0DM3QGztUUrjQU8Pw37fAR1LB8VszJgTDueV1pP1AGUljbBVaU2GmriEcKwwmA4TkWoyVyCVGFdomnBcZ5QL0SvgRU+0ImkRAo1Tu7Q+u8xRrlwHNFLMPLOHKIXQ7REI3lK1R13PRsQYmgMr9qPA8sWh0iKgZSATpon0Y22EYnEJ5V47y/RnibooqaRCEDrpq0DHahEzlj27km5FdvM2UJ8QJwFRN2cUz6EylWoVCOhqt37v9ax/6nE8aaA5feMu/dMhfaYxBk0Oo+rghAcX6wqIMO8zSGk1Aca4Vx39gB9CcFeoiOMrcigVajsLuYfNChvSmDBjxRjZgH1CTtYeT4pNV0HGU8f6Y9YekJqlz+hKZNXdHMHBQoILarBGMIUUiOIXJGoZale6geEMIAp9X+hTz8Ejjw/sjgqadIL+/RLNMgSZFHGTkkNFUCzG3Z0xnBacgFFaRQqO5aIBkYwNnZjDWYqB3gIsK+/+lEtCUtsFglKJazkXGKBuShmve6OO5pQygvO4kmGi56CdMRadbg4bkaihRmumybasfPf22h77rY/0pH3Okufa1n/uMK3v3/P6dt1/A4aVr2LIjcdhVNHGz07CU9Vus4kqM1eQ2Yh2LhsM83zbsaHjj2GIXUGmJU7eMgXMZENZwXcGpEJH266ZBGoYnh119W3viXTE1EbwydMZnuO1g286DJqwwvDmCHnZQaSRju7xhlikpcF6CIGj6KstPuPTgk68U+wiadaRheuo890fDejtCc8WinIWwZYSIywRg0bZMZQVDPoLGc1RVwOI1EGsrUxdBGHVAojaA6zHmd61QH7DQjxFHIep6idEow4rSyo27KD7We+r9SP02DO8EOGGH7a0plHEYadhgtHWNJAqfOXrLfX/wsfyQjxk0V1/8xPcu7MGTssQAhyVON0NoG2EeGQl5SUcBsUERVd5mWSoJ24FJQBWqaGoh8lzUQCU1Ns6miLaMb4E5Dsv6IY7QdA5lUSIOWWT2QHmEV0lNJ4wj4W1IwTcNyTROLmrYtEV2SwRkLLj7MRbr5Qq2PEIY0nXXh7GjXTNH+2YodLIm6HrrAwm8trccJgIaHARYXQfqBdnnFKGm1FHBuRIhJ0CbDsoZtCoRq0MZ8vrQxtlKURupCbCI0D5YY/e+BcbBDmTRUtQhTkMUef6wzTcfy+1cF4DHy5qOvNP90qZ1tCZoyHURNEyHUWjeN3rLh5/8sfyUjwk07iue+g/n8fInm6TFYjHHRjREtuQsc4g85MiHRdyxsKxRhZWUW6aMfa4PDSrXYNXlaE2NcAyYkcMGZ5Vk1roQfSig7ySMpEZp6gYBrZI3aEvHcUY0K9sKM0yFlxGMsgLTSZqlkpaw0wEpawPWOSQHe42L9RJfM3/QialG/1Cv1XeCxr8vEQBloJtqOMk+dkIDYJmg2G2RzywilSAOQjgyuW0hUceQ1LNU5odotMIq8W1+3CrEjYFxGVAaYKVw9e49jOtTqOYNopEWKYG2DG8geRQf6zHmG3bn+Dy8voq0ohI0TO8tH8AwpIHjFdlb7vupj/YTPyporn3NE4d2d7E4tTVE2RQolUVLs7ZiLcOCi1YEh8BxMsCDhuExrgaIzQA2dMhdjoWdo0sbZKciZFsRku0YdbdA4yqEoUEYkoInD+PThE8f3sbpP473lflB2w5BZETorJoKNb0rocaAAudWBBftwyUtdED+xKLtWvnKyKSp8XQ+3fjvvr6a659FLttHKC9INr5zEdBw4jIF6iGKKwVWB4weCdKQYOpgG4Ksk4KfrjzdjMGSb57Nxc6Z1qwDIwTMxWSRO4fFxRz2/himSUStqLpShvnYSD76j3URvdb8euP9enBQQMPro9C0rb/+TiOP49GpX/7z5V/1cz8qaO59/q0/fCbNXhXsHSAd8KkBHprPEG5syVjIqGLbx6Kyn3o0BI1BVo9hgkxEwqWbY4YDYNRheC7F8HQKlVjkzQpKOwyyTJTpumhkrVkYJ+g6ry3dAJr+Dcv0gaZFIoDTXDOSo+5KhInBcGcTOJ2hbR6ESzzPQ2JNOhIaN8MQmhsbaMq+4aYcwad3F66nM/10ABVrcQIyenQk8UYoqFbv14gImiDhSxK3n7TnqhEWNqgnkhIPs5mQammdCWhU46CoNdkS3YHG9XeVmATb4likkCtjyY8SNH7cl6+BpSDByZUo/PTKGlt/TRHY+ln2piVrzUKd8ox63fTX7/mfHzVo9l9454W5aS9GncO5hVjm0YUB5nGAWewnDHdyh6S1MvXYkOE1jYBmbDdhW4eVXaAMV8C0RXYmlk81Vig6hmv/tK8XJspsknRisrduvQrvxOv3pkqmjdpWMEkgrWRtuRrNINueAgNyNTmQ5rC0PpyoDI5hAdR1DcOQzBrIWlT0sNARYygcxlgtc/mzMGSnwZqWiABco6C4poROvpXG/PISXe4wMENUywpd3WK6vYlydR02oHbOAAAgAElEQVSmMzD1WF7CfDAT1TmpBojaCAG1qMDC8SHLY+z+xzmCPEOtnAA9Jhn3KEHDwleFHVarlWQE2eDlIqRRImmZD6RlhI/oNODDlqDhDkI2LuEA2Rc+62b1yh+7+JGA81dGmuWXX/jxg4H6Dqags0u/yIegWUQas8QTTlsETWdlfrnhOGrQCmiSZiC3i2MnVbiC4VKpcwnMZoA2alFTBZYnwRNSHjBMdb6uYDF9Mjkd/4e3b1IRb/mpa3DCZLiZQU8zwPDfL+kFEEAdTzyss5x/yzQ9yYhJwKKYZJ9Xg/l7JArLvJYikUVzwM0SHF5jS8/02ZIOoBZlsLqyQr2g2TxDVzqxOYzGIxQlW2uNsKYRDFglK7EaR/VAiLdAU06pEXCyYubQ3B1g/mBLHR9GRySyJe0/mg/WTirpkJe5pFPOhHOGIg7oZmR9R9tsBRMplG0JEyVoLQnaVGbgx09/7k+o73zdP/q4QbP3FY89P3TLB/PQU/XDOpChs9oEqAIlNRwvf9Y4YThZpfNJ4qcMxtdaLjRXkWHUIDkdIDkTi92hcCWcFNBeO/IDbX5GiRdK5gZk44NPT7Ihra9rfATqhKxb1Qt0YYPhVoZ4Z8Q+FrxrnSugk/7vHQ3Rra2lvbmUGpj8z7fgrI0QcGKi8911yaomoAwleV/+FV8buSZaGZimHE1VFZZ7pV9B0oRQFAbDEE1XyEMVNeRLqEDwIaEDIKUSBOrvnS5Bc2Fz2CKZbePKXfvoygSJzmBke8ajI/eouQVjh6qtUeekqGLEGCJUIQK+P8tIUyCIKD1UUCZGyyG/YACKGtvPeQHw977zgsqyhx4JOB8x0uy94M4fHjX5q6xmS70W8uhl7cdQjtZ3SNl6NHvdGw0kDDYyJtJidCZGeCYEhn5eqaIgJ849n2v9SC55Su/Bke5I++zrtZ2TxbCfW3I0n3crBEOF8ZkJMCVfxCeohKIEJAr2CeLuhCVUXq3RaNhRKRbUgd/8SZ6oa9BWLQwfEhnw79fFivhK8tBPbeqOD8UAWHSYX1miW2gkir7eRIBlVSOMtuH6WBng47sz4rnhNaxRQLGbDPmzOPx2Cgd3HWB1xWAYTKDpLxZH+8f/QQ90tK1F5Z7vVdB1jCzYYJklAgm7QYq2ZKBrOic1zV8DWDVE3UU491UvAV78Ta9T2fgRa5tHBM29r3hevPXAPQdZ16SGdYxWKMJA5nECttPWIrJ8Cqh5cA7Z+4DlqoMgI2VfoehmSCbA5u2bwDb/4lycdDoO0QpV7zsI0anZogqj42eZqDL7SPTwSLNe58HBNosB1eutFIgaNPVMVO14kMKyZb2BsDt+q7ICJlRonWdLTWqgCRru3WsqtEWDuI6gW3LSbO99VCJgvMDZ12E6BcoA1ZUV8r0WkR0iVkNYzs2yXhOep+lXm9BjzNl0I2k8d3PEKWCrBcbxGChStJcC7P2FRdaNxcfzaEHDBQnpuRA6DnD1gRlUlWASbaNdcUacK+Oo9K+k7hH7BO9dNEGLDHlpcOvLvg143osLpMMNJe3jjR+PCJrF1zz1H7rq4CfJ8gpoAo0l/buBQkjA0PPKlpXSgWGKZyTi400LAKX3Fi4p0JolxjsRUg7XDzugOhRkh0kmdkoasVnZ84MtqgZbW7buHjT0gawnL09unPKLEB2SsQG2E2DAKLBE3s4FSFmWwYp14bjd9FW1f/NrewZfso4VdBr41EarJYfjKoewIILYYrNdt2j7VMHOQx4cbi5v+ecJcL3F4UM5VMWNElMpltmuO8XlSgUMR2rKiSwpakkRhA0KtUCSONjVAuNkhK4AgmIHy7sM7HW+boLGT3R8vB+1qTC6LUE4TPDA3VdFEN1ITqOalYg1xV3WTgsRcHkNig7QySYaN8B8pfGYb/su4BlfhiYdviJS6i/xNo8ImvoFn/Nf2q74XAkgMpyuUVGv4W22nSirsfAoFnVAMxXprMhT7y6STqoO9zE+FWJ4OgMG9EgsaSuTe2c1W03+fYLGM7/eAVdD8ULrTlhUSU/r5QByx1nl+IG3dDPzYy1j3uwc1i3EtGWprkMhqiOxZBxvFe/far9CtqZhOzPQVMBTLa5BS1MYOrnJek6nneQrNF0nwOH71wowLJZN6K82C+JVgMV9h6jnCqNwCwEfHDoHdYU2XMB0AaJ8G7AJ2siiiGo00QpaNUhq8jnknjWS7jzwgR0c3n2IQHMIz9MEH+9HZUpMHztAMB3i/vc8CFUk2E7PYrm/QsqOkGvlwIHDTlb45OSEki1UNsPhUuMJ3/m9wFO+EMVo8mdZEHzeR400B1//hc+clPnvsaqW+ev+0+9o5paqFqEwnt5+KSOkTEkCGkaaCI0psTAP4abHbSE6MwKaOZpm3qvNBlVNDSYRiyQTXg9N4Tb8Bgamg7U/xu/ZW+/nFcU2aDA5twVwIjKmZWHhu6iUAG5Q5S2G3PPbt+9H5J0vkGTGqGgrJKMEwTT1gqbiavsaLqBYGgFzB1Sk2Fs0jZ8oIGaNZtGuYJIUmNGiOgbqGKsP7mOxV2EUbyIhP9Uw0jQSbSnoxsVUIk0TdSi5CSNpRKuaBjEWB9yHkyBxp4C9c7jyJw8gYRl+1D15quHENpv+Pq7bg14360NpGa0wfWKMcHOEi396CWqVYXNwDovduSjwUUCrbCGRhjrqsmlhsi2UdojdhcF/9aofAi7cgYPJJku6Z26MRjdoUn8p0lz5yif9TNC0L6fV0a/1Wm/H5FPFFtbXHqK1WIdWhGLeeILGwNkARbjA+advoIsOochF9IIZceAXJ5LxXddB620P/sLwpjIlhSoWQxIpddYpJWhoqjDYTJCcHlFi99ME/SSBvNZe1JRxWUmfTBPrTw8YzyVbmPHAz+3Ridl/OnZQsgdJc3Wf3x3TdqjyAuWqECUhNSGiiFaIAO6wEPUeySawtJhf3EW5ajFNN+AKX/9I+yuFvjehSYdJplmWe5JJ7wt9NgJcKtAMgWKM6//5GoYYCTNe1xRCW8SRkbdTV6VEsmwwlPmxVV6iqR2iOBVP0SLcx/bTucHLIX9fh+IyGfyx1GhDXoO6QJEvkU4TrEyBVdciTqeogy0c4hQe/89/EuRCF5NNWgDftLm5ecN4718GzfMf57j7P01jT6N7E4kUqLxBQqczrwecUbJ++4NiV0ABDPKi3aTBxlMM6mTeA4/Xqx9u6+8h37Rvp/1T4l0A/tfsTmSzJzkUxT4jl53AZqyRbiUwE1b79In41+L/pW/r1qynrCVnHcJ80ndA6yjDpsgMOebbT75Q9eYnW2sJcAG6mgowXYcWTV6gWuVwFa1Zgaj3si922XhjVjSm5ory2gGWi0IG4PzumTVRKZVUfy08kSBzXx7n/rWv90ky9lZjzP+/AsEyESZbwCXZmSgkw+iEnEyzDGEciyugrPkA0dccoxzOMP18/gygeI9CeclAK7oSFAYCmhJFUSCZplgFtKk0iKMRCrONWXY7Hv99PyoPzmJIEQ8Yj1kDHH/c8B+HX/+kF7W5/ZWyqJANaXTuRzvkKwHTr/VQTjZuVxQJGTd0gLoh02gxGI4wPB9D3VKgiuf+J/VLF6UWXcs8EnqPAXPyVBP+rhiwtJUphQoFoo0QA6a6IaMUQ6vfsnCCzenNVH3t0zvajlQ/gqcHhexvzFIPmh44App+PIszSF3tfLHLl1nXaIoSDSctCSaulA1iMfTJyIjynRGWJZbX58gPa4zVJoy453pPUE9RHKvMvRwpEdebwda0DAnB+j6H8lqDclkhChKJvDSms17gOAxvepSEiNJQonFeL0VKoeMvPGURP55jRAb5exTqhwIYNZJ5qIxNRlNiVZdIxilqnaNhnaoHWJotFOc/F7e98jUoyhb5YOQnJKx90fb29tHemxtAM//vn/B/GBe/bDabI6bbTSLNWitczzL6NBLF9LRyFqmTiEAAkWXdPrWN6LYxMN5FGS1lhXyPnH53bv+f66VGfZw42mQl352rWi2qNgf3iIdDg+HZCbAzkK6iyq9LfXS8McI/revtmPJEkvaXaYg+2nAchaCh35RfMy5pXM/Y0eTuHYPyEIiBXSMgaIjyzgJlhWZVoFmVsjw6NYlMXogJiP84SIX0a/euY+/BJabBljCxxwLXOtL435GRlnVw7Udu+B7ITtMRqQ5jFJdyHO4u4SruVB7KtnSuOOFhHow0TPs6sbJSP+8OULkVRpspprdkaLYXArT8Lg8aTkDQuBhzgWRbYmFrxEO/xZTvL3QZDsjlfN5zcOZbvwMMXKs4k9eptX7zeDz+hnWsuTHSvPB2NxntYH9/D4bLD8R4vd7zcrwIWsJrqEXwEmcYzxToKmEYd87sALdO4MLLqMgGS6BhP+ONTutfk/PwKvO6iOtfkkgI1LEKWTxE0m2wMwY2ud6skcXSjS1lBMbXXH4TuXRZa2sDf5vFAolCftKBRwsmR0k4UEbgJP4YH5+O+j3AfTvuB/wCaCk8+ptLITLPUS5yiTiRCn20abnsmv5j1kgRcH2G/QfmGHRbMGzH129rrY72bjzVg4b8zxpY8lq5Qolr+Bvfyu9fXmJ2tYIuM4zDUxjwxnZMbQ5lu0JrctgoR2Vm8nX7/AjZLRPUak982av3As1DgWxKJ2iMsShtiUPaNBiV2pJ+e5gmxlUzRfq8r8PGi14GjLfgdCS1Ez+jiFu9b8A58P6XPelLtg8Ofndr8xyWizk6rt4gaDhpKEopO53jo2rIpWhD/aRB5XI4bmKYphic3gB2InTqmniFOaW4rleo2Pg01Ofnj2Az4maHIpjDjDjgNgU2qN/U6PIDKSzDYSxrPNaT3GvQSH0kOaYvbqmz8E0zLRrOZ9FgzhqERF6/zrUPpR5cHDjzaZP6j9xPRhrhodhN1eiWKwGNah1iWT3L9NUBBJBhK5KjulbBHmQw9BOfNLHIC/OaiAfNGqy+QO97RCEDI6a7yqDcrbH3wArtYYih3sZAbwloeF2rLkeBA3TxCm6QI96w2DibITiVoi6vI+rGHjSXNAYdXw9JTYvcFdgPO8RZhLSqMGgC6CLERTPB1jd+G7LnfAUw2JSHQAhNpVCW5bPTNBUD+hF67n/Zk344vnrlVZuTU9Jd1CrvI82JERTK62KFdKg6P9zW6gKr5hDhwOH0hU1g0y8easwCLd3/vSFIANPrQISORJoj6PZ5v7c+yMrXzQ7RJIAaJX51fVuioZ3ScI7IiD9m/QbWoqdfs9WTeFws7TiA38lOB0YZGSXhbLhEm/7vyevwEgEBw9fF36JVwElraP0N5vdjmspLtHmBtqx4ZJhwLK6mbcLPS/m/EyG/38G0TKf+Eq/dLEcBh+my7+WEYujHd0U0pVTRsdROgTxEsWexvNyim3OsdoBIpXIj6aqugwXaOEe87TA+EyGaMgU3UjpwE+nqfQ7NQwojWa/vZKXKUpXYiy2iNMK4qDFsQmCh8eFggjOvfBWSL3gmkG6gaT1gaKu11r4uCAKRFY5Ac+mlT7qorjx4IY3HyIapbFkQCyb36FpulfJEHBlcvslVvUI2jdHoHPN6D8lU48ztp4EpxxpnqGMq0Cye/Q6FoxTCVCX3aG1z8FaH46eOW7BKDB87kcE22EbWq5L25xySsw3yskAcszc+Hj85nn/q3xJTkbNCzHVMTwRNmkATNJzqP6KB1mlsDZg1aBJ0XBDNbQ6yL6af2yoroCxRLFf9XJcTP7Rq/QyVj0pjLP8ih2H7fGKB5PqhkWDzcNDQ9O1XG8lNaZsaiU4RBVMBTv7AEnsPzMF1V8N4JLwR6SQeaOayGsOzMUbneHJMgzyfIXSccdrC6n0WzSWChgONBE2LOUGTOkRJhGlO0MTAwuDeYIzzr34N9N/6AiTRGLZf/tN7kh7UWt90BJo/esnTxnfq5WxULdBU3i7QGRZavBBkVtfA8XqRcC0cZMscZtUuuqjA+cfsIDg3AuxCiqs2Xivex9s11zv1fJT24TgI2VZbMVJRC5psTYHzYyA88MsTpSftTyrpzx/o89txnbSOMOuahvxy04jZyi+HBNLxENjkMB5HWVdQkVef/1KGPAqADzNbyu/7OkxCUVGgk46qgG47WeroSZRGNoHCnUfz4AKzw7mM3A6Toajn9NtIJOMSyKMzFbxL4OhQjj4csdvRdQBVagSFka88p4p1VFkUCGKNYKChh1pYdxtzU3rfopNnmme4/K4VknyMjWgDzXwGFbZohhqXVCXq/UZhMWwiGGxiduYOTF71alze2MHpyak1m3FkZDs4OJhsbW3N5bF819d+4X93W3jw77Nmga6hUKj9KlaRUPx0pPhdJTX1Q+rc8hBWKIMlzNhi6+YRgm12CyvJtYhJDt4YCY44FHmerACGBXTR5HJI12SLSxOZ3rjvtJA66XgKYU3++Zvntzwc8zP+Oq/TkxKDupOBeuZxg3g0AIbcbs5U1wqJcdKtsu4S/zKSHkZl9Wo32/A2z1GvuAyAQ2dKKCEhqypaQnfg9mvMDxdyk8kyS7fVz2nJjJaPr/4h7EHjweMjkSJo6IXn3iU+zNS0qCyIVmx9QU82m+MPsRMhtGFHZYGkCoCDGFffXSIuxpjGE1SLuSjr3UBjV4hRhVHRYegyuGaI7klPQ/qdr8KVwQQZD09r6fCjES2UNGWt/bIkSX5Lrsj7vvpp33suuf7axC7RNpT8Obq5nj4kaNYHYnk9SIau6Ayzcx4bgPHZDAnPixzw3IISRVvAxH6p0NF04IlDvqSVD5z4g2n55D5gmqhSFtG8CBynzTju4qWK9c1dk+ZHpVD/8Purf/LmEiwGFeuLQCMeZtADdl9sjWmQ8RTlukiV/u3kmVL97fQVq/97a8LBg4skW4eOoFku0VUlQrbK8tfZojNvjIAiQD3Lkc9y2JKFc+IlCvqGjvJjL6AeRRrfT2nDkkDO+4AmgSo+np7cI10h8+XknvjVd4CNs6gctSyNtDRwuwH2328RVWNk0QB1uYLWJdUMzAPWagFMXmNgxpgvQ+x8+dcB3/oK7LKlP5wh0cERNUDgJEnyvWEY/oBcg3u/8vN/dSfde0HEAykaBR1w5mfNe/SnjfRPsVeIfRhcdDOMzw0wuXUDSDnvlIspirpVFCb9rPXJbeT9syV2RIdZfiBOv/HOAMnO0J/kRv2JV+poq8MxGG6MBo/kalv/XgAXxCgaTjmEiCcTIGE9RN1KwyT0IB8f2LEWRX3q6cnB9XRjP4y3Xi4pZcsaVAWZ4qVEHE1HP5s21jQERs26KQMWNeZXD5Aflkh1JnWKN52xqfB0g09T/ULJ9XwXN2PIkKb/yX7adG3K4h+sizL/moW3d/T9sgAPEK40mksWq/vpUx4jCH3HGXC/IDkwcSNqdDxYJN3A3iLArS//LuC5L8KBSbHavYaB1HFAVdH8H2I0Gv1aHMdfJffhged//gPTwd5NWi3R8nQRxVXtfFP+ha8XODNCeIceeZQKpS6wfesmotvYni1Rujm6sENjG0Rc4tNvjBBfy9p915+JRKZX1otMQmTUkia8CCU6W3gXXb9e5ChdnMTIiZPUT5Jn6whEGcDqGA2FxThGMGWNFEhxabVGlKZoRMboI4wsd1xTAWvQ9GwziT6/XU8epLXkIZOd/H45W/AVXFUi6KjJkTzkYiEqDUOgtMivHGK5lyOyMRKVylGITFVi3eg/juoZqd8oefXLdNlNSYvObEKey38VAXXNXPSRVlwBlBI4XXndori/QnuVTPAIjdRcPKdhKb5BFVBkViibGnqwiQM7wu2v/H7gyV+EWRBhubuLjF3mCdCMx+OLURTdrNwb3jDd/b1fOsgGVwG1RE3/q+KWJ3/Yg9+bRxHR7+Jdn4TCU9iiaYgpowztD4ZnLfVtNrs+8fyu2+x1vdkLoDxGsFnK+QZqK5HVImzTeYQfpcmybJEFrKOON0HcODnQ1ze9wLkWOo9IMl4WGqqjFDrLfJvNrMcRk0BLgbzmY9ZRRnw7/aFkXgjqx3b7Hch03q3BQ+jQaajINjcsfFcSbajpmL4zYqsfRJxz1+gOKhQHJVyuYFh0tkYkhhuPaD4+mY7vQ1aoCUPtmWrR7sQu4jkeWerU61B+IxfNVfTK0PDP86VazO5ZIlqegmuHyOkdMg6mnsN0DWJFIxywpCA6mMBu3orz/+i1wPmn4NAFyA/3ETPz9SRkn57Yfm8o9yP//GmLP3rbH5nskngsSr5WpDDIZDLAZ3OvbJPJIplH8m3RzrBzyzYMDVY0QUU1Sl2iVLUsA1KVE5JqbdU82houineLaGT8GjNqYjpHG6xgY6YPzkTzqAJ/0PoNtcoNGalX+46OWT7WxWirrLsQyXgTGA198csUoGmd4LtxsqdOxNHeryPR8GipEUHjtz749OGH547tGgquaXxU4bcuS2DBnTUr6K6RsRy+D/5hyAKCPMi8Q3m9gl0wfYQI2ZUKabqWE7xi2Tuk/YICOVFGTLDg8ij+uhPw+sVOtNQq8lVdK+YU1sV0HyiC5prF9T+fIavOw9kRDnWHMGUXdoi4qZHZEHVnxVw3TwaYPOGp2PjW7waSW3HdDBFSWLN+pe26EBagOvcFqn3DD7+k+KO3/UIcX0bn5ihkY1mKUHEWiTScHxSTyy6pqRVu4LDZxc1POgfF7VKcz040al2jUYUcRGFXHjRyEfrDs/yptX5x9PCO80C3lKXPyHiRGakqkXE4fh1WbPN9eLyxLT4x2LbO83KwKSODv/D01q3aGKPtsx40/aCcYguu2RW3MBwOO8HzyGDa0Vhu//0EkH1qEuAcG8OaukLCtp1dEKPCfI5iMYdrarlmQdiibSrEKkEQjuTw1OLKEvUB3ZCxDNj5YcPeQS+eZm+hlesV+HMkLC0Y4p6mUYu/5wf54mQo20dlFJgSjq1ksjPSAVSTAlcDXH/fATKch3UZlo61SwBXHsDULYZ2JPtzmmSB3XSI0dO/BlsvfSWW+RBlPMbWVMs6NvqpGOh4fZaHh6jL5UvVwY+/5tX5//sbP3AmPoAtD9EFA6xyizQaI+H6sPa6+GajaIqGcnmTo44X2LpDISRru5FKkdnaAJ2rocMlQl7IJf0wCiqyUKlDg6UcFchdvoOtIUAVnbQnR0NkKxWXDXp/DKOTK7gVwvR8ooIlvyLI9a2oqzgOy2kB1hCMVmSf/ZoxTjtF554A0MO7Vnb6UC8Ffq+6rxG5Xs5wQ6F9dCJdnyL6g0DWHRfNWRwdlojFf9i0aKsSVVnAVUuY+kAWG3H2i+JnaEaAGsHu19h9cCYm9ERliEia1i1sXYi9kyQmBiGKeiXRhR6bQDRXTm5S5+NjSMBPUdbcvRwgCh2qYg+qq6VDU6sB5n86Q1xtosEQzjId0vhGrTAXCqWZDTDeiVE89GcInrgJ83U/jvmtz8aiibF1agvatcL4X1n67v7sGKgODpG45nvU/k99388s3vkbL7/ZHECVc9Qqk13LSThEHCnU7W4/N72Nymos2hLtYIWtx7QINiqEkwQICZAYHdEeHMoWGuTcx0KNp4bleQaku0Mrs9zxJPXbHPqBOH84Kd9U79thyJaBNA7DWXQ8nFQMXOuRl4C7fRCJqOgPc5eui240GQ4haJ6Mjt2LyEc9lX8DWI5q0I/wi0fqzo7/akvQBAF0T+rZlvPkNTUaqGqBqNhDKtYN6c6hqYKrAezMYrZbol1qxC7jNJL4yVRbAzwggz6g0GEl79nIaAxHhAyN4NwkymbExbBuCzW7pFjDhC3qchfaciNZBjUbYPGuHFG1iSKgkq2Qtg0CcP9gCcs1b9UORin90O/G/OYJ1N97Mw5vfjbqZYuN0QgxZ9icQ6FDCdbso9oZ19jmb1LX3/jatyze+evPP6/2oasFKpWiagPZhMCOq7XXRRcx4SbKTmHFTdzTGpuPsXCjFfQgpFAD2/H4PvpaD2FYJ9QjaBHxSlSgPlLKmdfhhJ5cLkHyHIhvWh4OGt5kf24SU1rD6QQZnvOjNNKu1tRm+rZVlt95j7E/adYgPPNEWK456T8eDpwbtK+Hw+Yo5Hxk4MjGhaCPdIxCHR12XGxUQ9c51OIKMlbFLFkEO+xeeC50IDSUrJVlmuKOH9ZvsiOFNzFHyTQ9jsVGa3h+AmflweVKXkTmQWQWG6ibAGHKLaQ16mpfxlNox3D7ERbvbWCaKUoBDXsNjhc3aMjTIEHozorlU2UfwPyWOzH8hjfi+s5TUS0bDE2E09MQi4M5Njd4uouSx3E1myMqZ29Vhz/zQ380+4Nfe9o5tYegZgqJYOlPUxEXPqCzhxIRgnCMvLGoTIf0tMboDguXLuBikn3cdULgcEPgXEQ7041g4tRvveoOoQYdBqx/ponwBJx3Xne5fo0Zxz3WkYbtV7/jVNa6EjjSNsjhFGxXOQttpObi7xN0TG2kTzm9GSM6/Xg4ziU9DDR96PEE3Uf8OMk+P/JfonouncXaTtqvO2EE0k2B9vqDyKi9ycQnzVNksCl60k4Ro7hawBZa0jDHd2OmWoqmZSE8lxoRGARNJp1aIBu5CBrKyTweYCoTHaGc2Vmhaw4QUterI5SXHYoPKoTNBFWvVMfWT3u0DNEc02230RiF6/E1nH7u30Hy5d+F3eQ2BA1P2lIY0aNW5VJuzK5cgTr/ZMyLGlG+/8dq+XOvd/tv/3c4664hbFeY1wG0yWS0lsfdOSyFN9GsdZpGFiaMLyQIb2abPEfbb49U3FHHjZLdQobrI9oLWRDrHKVbiP86kpWsTEu0STI/r4tc3qSToGFmo0LMgoSg4UgLs5WB0SEM14BUHbTciJ70YiEpyZ+zWCnC7cd4cu0YNTf+uudp/mrgfJQUdjLd8YZb63e+dCXq/UswnEvp067rWsF2wHqEqyFWCu3Mojrs4ErOknH3rxFvM8/3tKSXeQ8IGgYszqf352VydLd1Y3TOwMTeyehaalxsQDQO769gLyUIm5Hs+2NFywkSgoZbQykJuUfmGAUAACAASURBVGUKO9nBXa7A01/5auCJz8GqGYrxnE/i4eES06kFirvxn37j1/Hkl/wzLFWErMuh8v/9R93e7/4KTrVXENsSB6S704m46cm4M4TxLAJtEllFqoYaG3dMgFMVEByiInNLh74MmrPoK8TBH4kpycHSlxPVcua1KOCcL+KEpfWz056e917k40hD0GTydHJMllGG0YwdD1diCDG1WAm97j2z7Mr8gke+6DbIEG3d4W2Ya0L54fXMxzQn/VfXNWsb61HU6q0Virt65nto8wPUJNO0Xz3CLCyNfsD3lgJzoDloUc2tjDFzJ2FI4LDD6/z2jaAdeOKRCUL7tSeUSFo3lK+cpLEEZ7cSw7tdKFy7Z4FofyR7/niwLK8Rp0fkNVBmsAHaQ43u1B149/gM/vZrXw+MTnOFWK/SA9X+IeJJCdz1b/DWX30LvviHfhWraISU3XTx5je43d/5Fey0l5G4CnvLFtloA13FyQPqE614UcmoHnKofWqw8fhTwDRH5w5QcgxWK0Qmlf1ttLFzK1UorCur1QYh9/dOOZDGSLCeIJDv3ttf/PoL39r3a8pognK05LIgpJ8lQhQnMPTEGAN3cF04CtYSJ41WCEO0wQDJ5m19XdQbqXxFfBw6PlqkOSllPVLAWRuzpD07AS7+DPqT2xLu+mVZb2sMz40in+J3D3uj9EBsDvSxNHOHeulkC7pRISJjUFd8KAiaYb8rmbI1zxz3M+END+4gAWq44TSHthXCZAx3oHDpffsYz6dIanaP7P6Y/v0kCR8wOSooV1jsPA7XnvbVePw3/08cXpdrjBX/Lg8RWQKz96N96/fjjz94H57yurdjPj2FyNVQ1S/+hLv6H34Z280lpOCO2haD0Sbaii0en36HKAvhjMNhdYBwI8Dmk84Cgxy1PUTJ8VGjkUapnNVI6yMd9MEgQtHMoXjoOk+EI2j4tNgSNqC1wvMPPhR4JoIbDRht/PqGUARjTjRzGC8IEznTMkjZrQXA3hWAs9g8GkcG01hc83XGsGaIdOMWH2keKT31ntyP1j/9VX++tmuu57uP2ngBZq9AX3kA8/klRGGNJKEvgkej9N+V05u234I+cyhnHZqC1yFEYkK05RIBbZ/t2JOA7AkFNLV0kY1LoHjGpbFo6xyBa2GSDWBf46F3X8O0mCKt/fkNFv6AeWnXZbTYr9y/uvFYRC99DTa+6IvQtIcYxQG6A8ohRkzyePdv48r//UpUm6dw/vv+Aw5PnactDMr93r919/3cj+K2dAVUc+Q850iHcLLRyckOF55+wqOOF90BLnze7UBaUnsHxz/JDovBmToP3yS3ePJByjrM60Ns8CAungrXHqJzOYIhtxN4Sp+XyE+Hs9DzZqj+GDeUdP1HA7ggkq0GYcbR3qEvessF2r1LntTiccpcRh2l6JRBw0VL5+/k4AXkFNNPx4cYZhhF9tEsL6NpriPQ5K+st4eyXpdnJfGr2OpYapx60SBfVmjyEjubfizGrTLBGkcfAtPJiTKMphXPaTURlO5Q5nMMUg6GD3B4zxzlVWC4HMghGtwSQYGZZyR42sI/qE3d4l31BM/46Xfg4NQZZJhD4xBB7TDm0cF/8Gf48P/1U9i5+puwN92B0Wvejvnps15Tdu/8NXff//ojuDk8FH5hRbGLWwRYwdMvHSZyRF9nchRqhnOfexOQkHtpZcl0x2NbuXmBXIIcws486tANayzdIabbGdSOBw11JcMWnXS+9S20rCWRtfU9aKQT0nLEko5G0CaFMokHDcdOOGtNdXx2Fa7NpVhvGPbDVETKqgsw7kHDKaVPx4c0g2EILA/QrK6gafYQKB4KT/JRFo16ZYOMN6NNGwOlRrNsUeQNbFkj40LJNoSqJlJrkGWWsWX6nLRCRdHTRNC6Q52vkMbcbzzA4d0r1Ptadh5GrUbMBZW6xSqk38YX1wQNleszz3ox4m9+PT7ckU+8iLidIakiRHsl7nnjm5F94F24EN4NPOHzgG//JeyZTWjHI5n+5N+7+974QziNazDNCrmN/cLEhgwl/aGZ7DBpwzmQFdh+0g4Q12gjvgivQwltzn12XJ5Tj2W3TDNaooqWGG0kUBusT5ZoXYkg8Z6WVsK0/AS/heFkpFEGCx4zk24giEYITIr/v7svAZPrrK48b3+v9t7VUmuzLMsSGDAG7ISwQwgQhwkwrGZCAvEXCA5rIMlAGJYECElYDYEEwiTADAGSsCaQmJ2wGxsbW5ZlrS2pt+raq97+5jv3f9VqyTKWWrKFp76vP8lyd1e9V6fuvf+9556ju+wwmUDYBToLiP26FH8G+zJsnlmMNAS4jfI0i2AqUOXsvDNFzgo35+4Km7v4xcKfMAG/jbi/gCSqA1kTOht0aSoTD1G5krTDotgB6DkZZAiCGFkQImx1YVOWPpmAkXKvirMoqpX7IkaQcTzBkyT3mPo+bJMT9QJau/vwuzYiDkUz0pJ4TI/RE3MRHRYl3UjNQIaxF/8JcNGTuFoCFOaAxjF0f7IPt3/1u8h+tgcXWj4q1jHgoY8GfutaHA0qcN0QWnbT17OD734jav5h2MJud5X+WkJEUQWqhCD1EZkNFKYylC4oCHc3snRhiqU6Nw4iUeFmo0oPufqQIai2kJV8eBULYvuqD5DwkyZK3LlrCgWNuMUoQ8PhKgcjjYUeijAKY7CcCgyeNiw2DjSgv4ywdQx60pAdbpPNP74JlifeSGHqorR+O6CRn7tG0Jy8VrMW0PGoS4XuoI4oXEKWLEPLutC4fjMclclZigFfeScwmHCexJFEb6klGzt6OA6N4t25riFFBWS2mlpy72ymnAG7veTueGjuYaOvgJ7IoaSoRGqltyvcLxNu6MBOdKShj7FnvQhwtiEzdLQXr0f94O3IlhIYjR5K/RbGSzr6rYMoPOnZwDPfgvmujUKJXfnbv5cdfecb4DVvh6uF6FFuy6YpRA4avSoe1oG+gEm6vW3gNVJZ3ETMPWuDZud0XIlhxR70YFKBZrQBczQWV1oxFxUlqFBI3iqhK5K6qE0Jq29Id+AddRC6E9C8cVicO/CmsrvMuN9ZRK95GK7Rhpa0oWuxsDd1y5UOcJh6KExfCKULe7agWWukkR4BCcFA0kIW1RGHi8jiFnRGWyELszbgqISvkfciH1xKGyFB3GgDvoa4V0PiUxyS8q1Mw0qxNArJdjLgsi/is1YqAEsmlvdmyNIK2jLWjFELe9KfoeQdZWCKgQeXaYt0Ec3F/gZQmhxFGM6iauowmybMiJo9PlA0cKjdxSZOv3/pKix2yVPibvqhG7Lld70B+uIt8LQI7VCHQQVMyV3cMqwJaAbaUcw8YAwY95WAkEYlbi4X+uKuZqURLL7wYEr6M4PROrz1VKVmi3+QH7dpBpYoQpH4ZpP0yPSkVlOHqyTQXWBkC+COSSMs454PB3uM6z2C5hBcowktaUGn1koOmgQFhEkBHiONzgHh2YBmFTNuLZGGkUOOuF0grCMK5pGGTRgIqKGJTLYXhh+evLOcr/DIgYB2i30TcbOEsMc14VhAw+n5CmhSAx5nX/QeCVyZbC/dTnrEGLrUAUpDjIZdKR+aLs+nDop+AXZioNNpinhAdWwdMFrCwpGfomjbKA7KAKf3VgM9x8TepIwHvuKtwEWPwqHFAVJSL7JjP/te971vvDw7+lMBTZOnOnpJZ5yGEjQj8NM++voRbLp8A1BuyRCSrXqpxnWCJjgOGn9axvqDsUWlGm5TGLAL3eOJgnKnsSgm6HoOGmrBiCLW8PTEesAD1u8CzFHh23JDQmejixtZg0X4nVm4GtNTAzqNS0l9sVxkKCJIPLjrdwA6T1pnCZoTeMdnghwl5qgGqX0gbCDpzyEOGhJpLM7RuPYi16yimZq/KRqJkLvYB+JWQ7uKtGci9Nle4DGKquhsaHL6rcMT4Tw61jnIZjMs7TVQNqdEjNtLAlhhR3o7fY/UFQdOWJR7aRZNdLsNJIO2iEPVzTYctwiz7SFotjA942AeJvY42/CIl/0Z/JELsZi6MBz3+1rW2P+5pfe96Ur34PdQynw0B4yU1Oqn+aYO3ahikPbQ1w9j88M3A25TIk0ILsqRTcZCmEJAJBdRcqwi+jH9sWWUtxZlcSsOOzApT8ZOZ8DVCUtIzVIKS6OLbFn+N9ubFmKtCHPzA1VdEqcIBmzBc4gaIw3mEXQOw9GWocUdaBzgUZPXKiDVioiSCpzp7ZSFkNpoTY8VXs0a0xM7XFEGnVucui/Fe0iSlr8ES1+CbQRS7AolQ0xAhhxhpc0mtC9ua0Yspouy95S2M8T9EBFXfdhxtwtCEXGZthnyfQPhoRit20yMWusQhQM4SQgtFqVGBK6BkIVz7Kk1JFuT9a9e/QjcsoVeMUOj00cpq8GKIoyVI8wmJnaPXYbHv/xt6BZmoJHUpuHzWjZY/uD8Z/7mau3LH8Rk0kI3dlCsTcAf9KTAjFIbWjGFNdZEeReFeZYlesQmbWHUPrW0u1PVSNK0ASJyanaWAaenmlKKX6+Em8lk499JTk+p9RtBswyECcf9FZSKW6GNXCDejjp1b/UAScwWn6mY9IMD6Lf3wcpoE8hPqoOoR+tBfgrGEMWjsMa2qjEEi9GzeqwNNDINy3tOOq+PkTOqIhvMY+B/ky6OqEmJltc+svXASMMPrFot1jhs06lzmMGMPLRv7YsGMYtoDkrZsuCuOdeHM588HBvLu5uwDlZhD4qi6cNxDQ8ofI+oLMYejSK2cddMxTdR++T/Z8NVjMQsAZuLDo7EBg5f8mRc8bK3YZBOQC/olGD5kJYl0evq133szcn/eQsmgyUMSEUsjohefpRoCLlhWUoUaHbWwIFJZkZIZcktnx1llLwvCUlIM5YQuh04O5gbVeWueIvsSdDjUVEekNLhLQJXcAVWRg2WswGuuw2aNYUkMMSGGUYPceLLoE/TuQqyF35nH8y0o8rczEHYpxGFA9MeRxhNwB67AGDfQiwLz8djqEvM+o2mFWWp9ZJgHn74FUT9g6L8psh6+dSWoJFVebIDcz0/qnGYA9iRh95NEYo+VT8VOU0UM3jqNBykIT80JpZua8DdV4HrF1UPTfg8K8O3/O85H2XlhLjq/+cR1k7JOPSxkNhYeuQzsfNZL0crnkRpRNojr9eyLH4ebvzKx+aufTXW9ebQp54/b7isQxA0NlCMYY41Udk1AmQtsfojLXOoaqXBhZ6UoJPaYCyJLo1zcVEMM1SXl58onhAIHCXfkTBs2joimpenXCuZQrF2AWDOiFdkyq0I9mUMDkBD6JkDzfCRBXsx6OyFkSzLjhh/J+XSxJDDnkAUTcEe3ZaD5mwjzdoAN9zNViQzeiqx6zuKNFyEH3wLib8HRTrVSANceXEqWgdxQKtmclKUJEpgDGDHJ4OGxE4lf2AYNhIakDgWlm5twN1fgeMXEVts6q2WlB1SCu4KNLxW9f+sLIKjxziaWHCeeQ3KV/wmOskEauPsDeEqLQz7l1tHf/q92bf/Piaah5HotvRp6IUdS6TJQTPeRIWRRkDDpTgFGhZsJDLraVlFGlOBxt3hkeibs6xyHeJhraBliGMqX/IwSEpnBYXKRuiljYA2CgSGKINrtN3RQ+VZKQM6BZp++zYY6bySyss0BP0MtGw2rUlE0TrYYxfK+kh21ulpbaDJ936EvMajosGJTVKWo3cUXI8kuAN22hImhyzWSXFHAtkQNGS/sQlK4QhfRZqbQxT9CjRZMZIjgTJJMxwFGkaa3ctw91fhDAqI2OK4K9DIE+UguVNPius8ifDkDmYuNr/0jcgu+hV04zHYnqz4XaE1Go1azT/cOPyOV6B4ZDc8z4VFO5wwRJLqkp4k0owzPY0A4OkpFgEoMUyRLUoVaQga3aojcFpwdtiAWCTnsq8CmCHLX+329COmuAqKVQJmE2BQ440cGA4+fTWY5DYn/QgISiNEGuzBoHMr9GQWNk01uAzQh2jjmNY4onA97LGLAGrzrrUQXiNWjv+YaNSLNXQqDUwXGmu5pIXYvw1ZdAAID4u8LuJcw4YFM7O2KJ7ScIOTfX5+GGlcdG+OUPArYvxO0HDLVSKN7sp7ZTomFnerSOMOVKQ5NWhWgeUE4Bx/9dII0EwcK4xi86v/HNh8GdKIxmVsIjRHVDk0d8uhxQ+/bWNw839htGCqPkKi2vOhFMI5aCQ9NUUkcQU0ogLBZmBFgcZYVOlph6mMRjnLWtkqyBeT822RQUiPp/Vwa9sAdwMQs11O4SGSrbsKNIRazB2oquKSRHvQ79wCLTkIx2DPA6AJG0FjWSMIww1wRncAdKRd85H7bFGTE2dI2GO65160pNIeUv8YtPgQov5uWJSYpxwJP0IGSVYEDe+XowphiTSsaY6DRuOJlkxJsRVipHGRhKFEmoXdy/D2V+EOCrIBexw0q+ua4bXl/7ZyUjx+zeTgcCQTb96F8Re/FpjYLvyfej04PL7O3aRAM3/7vwZf+vhTD3/1s5iwA2hBWzgdTE8RL6KYwBxroDysaSglyvIkL4SVskRFCUhbSwidNuyLSNlkd5Pbmjz65uRvjvZ1IIgZGcZgeaw/SGMYl9UZoZswbqdcHxU1IqQRQcktzhgJI03vFmTxPjgGJcIUaEhGMm2awG+AM3Ix4I4f59OcLQbO9OdZpNJclY1fSqExRckHqC8TekRH4XevB4clJFlJ3Wf2FGhYDgho1JbFqUFD7jTrJUYaRyKNwUiTF8KeX0Rikhl5ciF8qgtZDR71/yPdQQclrH/kk6A/9TlAbSOCjoVWq/fZqY1VtZabNQ69Pvv2f7zpln/9B0yijqw9j3KpiISFMCNFHmkqPHKnLTlyJ9zLkc63Sk8a0xPXPs16DppcjWoVaLiiwr4Oa7z+AKjQW7q4E0imgLQGcMZEEnnSh2kwPSnN1pRSYukYdA7ngtvR796CLLkDjtGWNZFBPxH+kGWVEIXTcEZ3As46QNgf5+EhoFEN4ZjRk2+uxQ47ieMxsnAO/c73YaMNixNufiP9yQU0PGEq0FAkwc9PT92bQ0lPPKZLpJEjMjUNHEQCGkPSk7O/Am9QQmoqo1P1OFXrYDUr8cRINNCLWNbHsP3p/wN4+GMRkB/e4npX8oapjWNvUqDpzj8RBw/8+w3vfyvWx4fh9Bdk/mG7RSS6i5AXVFvC6CVs63fFFINH7pgsMMNCyom0VhV3jyQ9Bncz5ecHOZ2FMw5GG/JnfZG5D0kJcUoolLcBRdomTktHk9IuJOxR74/5X3FrKGjNUcKYYvYZc4BxFMuHvyOgKXJiR3l6coH4lNYWuJUdQInMvePE8nsXOjnRnYBPWZCTdEa+SiyOKEATcet76Lf2cS8ANuki5H7K/nYRKeXMaBkAcrJjSv4g3qvDaDtwTHa+ObbLRNypVKyKVg0PDclChqVvdTBT2CxKZQo0pwaMIsZrohJaKpWlYdjtdjE6OoqBPYq9QQ0Pfs2bga1bkRklZIHJYeqvWSVLSY1kWVbB4lzr1ve/Fc6Br6MSLsjKqe0UBDQBQ2dlEWMPmAC0jtAhmJ4obUHebhzS/HNEuC5RcgSegMbPQUMiterMUtgx5PdQJ9iZRKG0DSjsBDApmi4h5bpEHo2rfXTEY4PKQErQpGPSXteNBUCfR2fhBhhpAw65PFzhiJsIwhS2NQOnvB0obgcycVW99x/yZpFtZSIVLi/NwJoydSZRHOgibv0Qg/Ze2FoEp8AKuK/4zgIaemlxISUSMluSg0ZvWXAsT3WQ6YNO0BQq8MmyZN9sUUPjv3qYsjYgIhV2uAV4wh1QEWbIfCU1l4ef4fpNtVrFYlrGQu0SXPK7r0QwXkPf8mCHFoq1clXTNCVqpKJNcHjhMx+emf/K+7DJ5qtUrWq6vVK4iJFm4pIJQO8Ii4+FMHkdhmkh4Z4URpCRrJUehbvRBCY42FS70AQN0xhFMOOMgkMunMIGuB7HElsBbQxZyK6wEn8kfwns48iqLYtDFylrGu7/GMvQtDrS3kHE/UVkpDpqfaRoiAGq7UzALFygwJhV733AyDMOGYg8UnC8wTWEttBnlQ7fAEnnZvTbu2Hry3A4lyMZXRSYXOVeJ+IHMbJiiqyrIdwLGC1HNITl7Glp6A/68LyicLKFW7VsoPPDALV4QqlOqOp71T0Y/j0TL09GFz4cx4YfcGcNYkayt2PBfsizsenK52LB0xGYJiqZM1sbHz8unyag6WdvxY++/kc3/O3LcEktQrfVgm170qfx9Y6AZuqBk5J76UvJ9jZpQVTeTiQ9sd4JEafH4AloyJ1RrXF54zUDMc02UECcluEVt8C01wP2tEyks1gT+Q82caWUEfddsqtY0FGalD0i8rda0LS21FZZcw5BtwWdjiLGEjItgGmVYRCMxQcCGVsE5+OhVnJYyabwciujjqLPCmg4wd6HXvNmmPpBOF6spi3S0HOQRVRVVaBBKQP6uqQnkLag2yI+SVuent+H63jK1JV90JaN4MYMVrOQWw8MY8JxsAxBxNQU0IrQsgRAg0Gfsq/y37e2bWx79v+C97An4AhrS9tAJdbfVhkdP1GoMWpmjzWbs9ftfvtzsN2uo99qwzAdAU2f+ba6iPUPmgKsgVA9qfEfcfNSIs2JoHE3WsBYqI7cwkvNvxh6MYYkG0exQs7LGGDyaMy5E1vvaiORDlDK44syZzT24J44rW9YBHZgUDCZ+qaNJcTtNrSsicyYRYI2THaG3Y1A8SFANno+EJOHbkYbHo1pZcRDw0BxoRMapMYgkXfQvAG6fjMcJwACB2lC91+GcFbQuYA2M+zAQHo7l5EoV29KhKCDDEHDlR6Z0tAIpOsBt9rwZ1PobDeI4uhKLsmjjgIQJ+UEDaOMSAWy10MnYV3HIUxhx0vej3TrpZhFSzSba3H2uHJt/ERJWPlFrSCrv+sqGIe+p2yTdRs+vbfZ0KssYObSdYDDPSal7UZquGGaSLgeqo3khTDTkw2MkXg1tOrJj+c6iVEzSLN1cGs7ZCFeeik0FudvkyM8127p3CY5So6iHIyyNsikUUbmPUXo6FvcUcewZAkp9iJM5kXHzypsBEpXANnE+QGNvC/C+ZSxAD9g9KtUoGHPiXyZNoLGTwDt+wKadOAiiy0YLOxlDSPnhFLsaWAAd2jI6oqIz8hCY7N+MJBIz22QWEvg+RVgbwGd23owOSTNvbTUOP3EL3b8ozgUuwJJqClXgdTYIZp5CMaufj/61U04ljVBJbyNRdXT4+OE0jpbDv8BX/jT589/5SMo2LYc5/oxt4hbyKoL2HTptICGRlwEDWsa2VaQQnhUapqYNc2MA4xSHpuknTzKiAZYDZq2DWm2Ac7YLmWwxZMFJUjY4RTQGNBldYOnDAKvLZ/UhCchRhothMGL4w1hs4dHsXQRCG5CPzgIw47hsLtcfjiQTp4/0OT7TeylKG9PJdci/FxuhtJfcvl6QPs2bLuPpEdnF87P8tRM0LDPxdUfAY0O1NUEPIwjOXERNBRAMC1TQONGVWB/Ba0b67DNsmIGyrt8Z9Dw35IkEo3goV95r6fsuKsPfwbw9D9Hz6uhacUo2Nk/jmr2qWXus/nO07Dns5/Z/dE/w3qtB2bGbmyjk3WQVuvY/OANsolAxSryfenAYhpFxDFdZV0kGY/UiyjNkHnH1EJesBo3iImFPgEN90OGTbAntqlhXUZbLhaKSghFmuMJ95vl7uWRhkoJajrOrjM3H6RkGErBJstIezej1dsvTTTOsczyw+TEdT4eSjk9J1ex9qPyRZ4pKKLIVXaelML6D5Hp34BjdZGQ+S1UW/4sIw37D9zEoX6fBexPkNSpSGYiDGPYBUcZmnDllvaOSOBkFeCoi2M/PoKSPgqdjIJcPEnmXKINRL2hWOZ2UhJwxwoJXNdAvdFFjCrW/8bvAY/7PQRceFTWns8oaNpnThlp+I/B/p9l1//jO/CQ1k+gH9uLyJ0QBYNj4X5M7RiDVtZQGGV7nwI+fIMnRGok1lviy6gVUjgjqr6F2Vc2M0zRosu8Hq75KMC9QIortTyvbAmpuSKTW+Eck9SVby4OeSbyqVEq32S8ZbnilGJpcwmvjiBYRn/QwiAwMb3+CqTp+TlyKyk2JaNPQpryeFKfHAoZWaLWGQL+zYiiLyOJmzCYiTXSP4aZJG/Mcega27Jp0LljEQWjhDTMOTe5JqJyEFY+FiTCISxi7gez8LjkH5SRUbA6M+FRYd6lgmsTbsQlQw1Ny0Mr9lEspdDdaTTCi7H9VX8FjE8jkCZiioLJ1vzxx506P4uLix+c/crHrp742rXYYFK40cHANtBCA/akjuoWD84o825X0QzjSQFAYh1Fl6catwCnZsBdz+We3gpoqB5jGpvhGI8HHIKGi00Mm4woLIQ9JaMhnVGqUA6j6tAqZZUfpZiRhtApa0p00cIw6SEIu/CDLoJAx8TETmRc/TgPDzGnl9MPP8mBnDQpeyYL/akNi62FlAZRNyOM/w1p1BR9J0sEl3J9YW6bCg2WEYg2QSZaBxbhaWVxZeHKrlIqU6K5Q+DwHnJWdfhHc3D9cVjhFJy4Io68SdZF4LIHF6AQ2qCvV7vkYiloYWTERSMYQeGC52LDM/8AGC9J1x/Ah0zT/PkmYZ1O55HY/Z1vHHj3S3D/cR1xlKGXsA+QoWvWseGhHrQxHWlA9zULRkKyVYTEOYQelbDMcbg1G+Z6Dhzb+T62bIHCNLbCMX9VgYa0CSGUKNBkmbsCGk68FNk8B8wJf6rbRBd7gxfFYz33wzMfSTxAGPYR0UGtNCM6LufjIW+mgIaueKFKTwQDQZNYeaQZAMHNiOJ/QxI2joNGPKZIAc1Bw00MRo8cNAW9IqARisRdgIYaNcEi0D0QAccslLQJWE4NkdbBILsdehJjJLsA4SBCOOpj2W9gtDyOA+0y7v+MNwEPejwwVlanvjR9tGVZ3/i5kUbq/vk919/xFy+5dKx1B0olP+IKAAAAHO9JREFUQ0jK1J/p6AuY/iUA4xqSqIQ0sGGRwmnTnH0Wfb5/xjScqgN9IykUDQGNNPVoFmpcCIugcbeJOKMCDav3VaDRuzLDUiKNq0EzdPNSwTFNI+iMVIw0TNiUL0mZ4wPEsQbDrCpj1fPwkPTEeo2qVcYQNGqOxrVlUiK4/wT/JkTxl5BGQ9AwpeVsQ3GU58/koAkttPYvYAianxdpaEtgGjX09vYQ7g6h9R3AK0Jz2SWeEw2acrQVMfWGnHllfKJXcUybwcXXXAuQdVC0EWjpT1zXvXvjUwGNv/RS/5/e/97dX/gwds3QfyhCt+3I8lvp4kXo68k3HVXyXbJWQd7MkuwfpeYMLG5VztQBu6H2hlm30trXugim+UTA46413XNzhYIV0LCZR9Ak4segBPfkzHEcQEPpZ67CyD4vv4ZteyZBpTqh6qST/A3uJQBJasprGvqT3yk98chNK4DgZsTxl5CE9TzSkD+kIo2sWAhb6HikaR9YXAHNz4s0vO4kMeBxHeVICfGxDpYGC8j0FAWbgm1lZP0yHJ7E+ofhjpWxQPfibQ/H1AvehlQfQyfq0fD+mmq1enoWyxnj+vXXNb5/7eu8XdWjKKcDtBsFeOMOotG9KGwrSO0y4IVRGYtvWsBVDR2JOw1j1AI2LANOS950kWHVDVj2RdDNXwNIh+AUbgU09BVieiJo2DklaNicGha/rAeGkea40oSqiRje+CdvsjJQF2IaxR5POay755Gj5GX5ejlzWhVpVqUncqQR/BRx/EWkkQINZUZUpMlBc1KkaZ9mpBGCWxCiaowDPTrwdhH1jyAJMoTtEgZtA7ZZQIVS+ktHoU9M4HChgo2/dhVw+fMR6yNYXJ4f9Pqdke3bt5+embtEm8MH37rvk3/9R+VD/4JavAw/GIFTLqCnHcLIg8aBShd9o43ITlHQHFgtLrEbStmBVJb1pFB0hO4YUUjENGHaO2DYT1LpKW6tpCdu/qllfU6xOaNJFHnrBNAMU1XOqR3aHOb+4GrXWcmqyoYEdXZPNeC95zGjimCJNCzsT05PrGnYWxoA4U2Io8+vAg2Hu6tAI6Th44Vw5zQLYWmRGgbSyIIWlWGwJU+j+3qG/r4K5ucCFGomqDPl1PvIvAru2HE/XPiClwPFXYjtMSwsHXvbhg3rZWxw8uMub2u2tLSh890vzM7/x9sxMpiFa9aUnW/UxvgVG4HaQQysJrvf8GDBaYzloNGBiQSY7qoVFs1QoLHsVaC5EIiaSg5WVlKVn7dIjUmk4QaDOA3k6ekUBTHb7dLko10eRZEpYDhUGWfK5JR49bDuXkBL/hQiX3+nSJPLoaWrQBP8FEn8BSTRYh5puNfC6MpNA6baVTVNYIKgOZ1CWLK26yGJIgSGiQLJRp0BcDhDsG8CvY6J0OqgpCUo9TM0YhfHHvHr2HX1H8LvGLAKI2i2WjPj4+NHzgg0Em0ah991x7WveJl17Ceoctk+zdAeGJi+fDOw9Qj8ZFYKe5f7Nw12X0vC8gsxB3snrf8GoPOuWShCL3B57ULo7pOBeN3K6Um8vCm8yCaUCLcwOvGGsY7Jo4paCMpv4uqj9+pLWjmjyz+emhZw7wBHRIOkEOa7x0jDZihfP53oLJiMNFxGDH+KQfuTMPUmLNnlpsqXjXTQl3aCWk84HmlY05zOkZvp0aDQpR7gYLiAWtFFtVkGZj3Ub6D4dQVJIUPB1aAtL6I1ug2T17wP8aYHoNeto1gqvtuyqy+/q7v1cwN41q9vjL7zhUM//vT7sNOeg95tIsIk7HUmSg/uInWOKMFKFrrBOnhGVV5ols1Du5ho8hGQKe8WoRfLyLQLYThPAdLpHDScXqnVFtnVFtC0j4NGbhpf+mqPhFV/P+VVDaPLecpNglhGGnGFp0QmEoNHblWXKZVyAoJ2zTfmoGmIE5ykZG6CCGiYatcIGo4q2KlP22gUmlLZVdrTCPcY0Pba0H0bSUlpKnUHXRgXPQKTz/1LzFvjqJYHyNLuxkJhZnZNoJHrX15463fe/fo/umDpOoxS/cCcQgMtrHugBnOS4oEdBFGMrjeGglOF14uAuA7s0IFShDBOYXi05aHY0YWw3F8HsvUib8+Zk9IGVqAR4Z47gSbnVsgVDP+e/3mnoiW3epF/P4sF/rMNSBJpctBQLUz6NHxNPHITNEyjXNcdgmYZluyEETTDSLN20EhnmDwoCg6Mh+j0ImStKfRuzTCzOCU+DXE5QMvVcFhzcb8rXwztomdjIStgbCJ4W8GrnbKWGd6Wu/04ZllWWvjyFzutL74BM1iQ/eqB1oezzkdxGzWBm+iFLbRHayh6VVTq1JVrAVs5bOPCHWAUK0gpb4YLYXtXAtqM6NVQtoIDSmVCNgRNSy2OSY/lVBuSJ/JZT122DGugu728s4XHqX9eIk1OppdIk6enlUhD0PD0dCMGnU/C1OrU9VwFmt7dRhqDbn930dyTwW6mi/cnu/N+N8HCrInokIWt7Wno3QhhsYMjlokjEzvxK1e/BYvNddCrE0iNRnlyclJNLu/icVp3NVvovPTQR695L/Z/ByNGhoKXoa+1Ub54FKh20E7r6I4UUXA81BqBVOrZhgjaqImEYoKlKmLTQZxtg1t8KqBtRGb0c7Z87oEt4ZyRhqBhgcsB5XBDcjWJ6GQ22qkuYVgDndblnXvgSKTh8ZmfmEAm+InsaKv0pEsBz9MTI83/hakvkSl8EmhkWneXNc3PAw0PAMJi1CwYmQf4NvbdugS7W8JEdwRWnCEotHBbYsF7zIux41dfiPpCAqtSvKY6Wb5TX+a0T08nf2Pw5Y/cfOsX/uZ+G6NFjJoh/MSHu30E2Byh5fbg20pgp9pnTmwjGE1hjxvQnAK0YhWJaSNML4BH0BhbkGpd1ZcZGqcLaDiPIqGcpwdSIXjjV4/1JWGqlzbkv64sfK1+xatT2rnHxN3+Rin0jqcn7h+pQpgL9qcCzSLPnyo6SXoaRhoC7dSFsAllwqYeJ86eOH8axH2UOTluUa/Yw+wtiyhmJZg+OdUauOBxwJzE/X/33ehXd6JkF3+mV22y/O/2cdofxWzf9Y/c/8W/+8bIrdeh5i+q926Th94DLQRjOrR+CivxUdA7iPUefA8oTtJAnY4rVSSGhSDZikLpvwHmVmRaVyKNuNeJYfwQNE31otOKumEnc0FW3FHuegVjeCPv9urvqW+QPk2enqR2G9Y05NKwfst3oFZqmoVzChreV5rPlrj7VS8hOKABsza0OEHfPoyQRilYh8LFT8Doc14HP63B9dxHaZb2zdO5JacNGv6y9nc/+ZfNT/31qzZ0jkAPI2STKQYPc6Gv95Ash9AiH3ahj1jrItJTlClrX9KAalFkZgfxNhRLzwLMC5BpLTXO5wanjAx4ROUQs6GAMgTNave41eyzk5n2JxfFp2Tin84tOQffI6A5fuSW9LTq9CR0z6y3kp4MfQ62RBpupeaFsJiE5EQk3p/AQuvAEjxUoAVGXgMN2xAkspHopUzcWBMmUQjPmgQaY2jc1MNIbwpxt4F+6TCato66dgEufdrLgUufAjjjf6Vp2qtP98rPCDT8pfVPvOam+nWfuf92y0Q3PADz0gzuRWqbQHMczNVnMTU1id5yHyU66M60gVKA0HAB+zLY5vMAZweAJZVqkoqSHyFouM9sLqkj9zA9nZJNvypNrVzpyZdyfhp7ee7MPwSsaWKZPYkrnVAjqK7JtDwAej9AFH4GaXwAtkZVDLUfRv8n6usk3Z5IDcJ0EC366C2GIl1vxza0IJHtSsgX9fRi+NoAgUGifQq7D7juZmChhvndXVj1BG6mIdTa8Cen4F/yaIz+8q/D23LFzbY2esnpAkYqgzP5Zn5v58Z/fuzsv/z9dVPzezBS6qCNo6hc6ABbptEfdGEXiqJPqA8sWGUf2DIH1OiMQhbEw2A7vwWYBE2ehkitENDQZHEAWIuioJCllDs5P1PqM70nJ3+/uOAKqZtTbpKwWKWxWUnAsLlH0PQFNGH4aaRcMRbQKLZiRok5Knv1BtBFBMFBuNRFvx7Bjhz5og+mqvl43zRkRoRAHyAyfZnfGg3AKW5D46cdJMsGCj1aPDtIXA+HnAqqT70K0dYHoDi163E1rSaE8dN9nDFoJNp84T1/2vjPa9+4jSywVhNpLYL9iCn0kyYKxUn4yz5cvYTEasDYUgfGqUFD0cYHwylcBWgklfN0kIshyzSbBHNGGk5j6SPA7tNaNfNO9/Lvme9TAow/DzS89pNAo5O1p0CTRgF0Etv6FEQaERpouLSMsBPAIu0jogcU/101RKkWRnqK8KwNVxbytJ6LcD7G0t4lVEIPJaqiuyOoF6vobb4fNj3tRZhD7Q3TE9vfdKZ3YU2g4ZPc8Y4rP+cduP7KaZu+TPPAAzRgUxFxl1HClL1qP63D3dAB1mnwOUvxLoFbei6AXeJ9cJzbqEK3NLzMujpyMwLdR0GzQueQgWUkMrhKFEVFGmNY0/S+fzzSULiSkYay9LEvWSfm7UjG1fbp4jKSXgCbW5sBzUjHkbKPSiMMPYJpU7GDx3YqoFeFVL/nuh9hXWag0KcpagWZWcO+ia3Y9rTfAXY98vOaPv4bZwqYNaWn4ZN0//Nvpxa++um5mcZ+WNYyuqU2SpdtEl5wlPiw3DIGYQsWtYTX6YgLPSTWNjjucwDnwWqTkB6VK4UupTMo+N/Oa537LmgUsVyRsAQ01NgR0CgSloAGPaD3vVWgMVdAk9AMge8/nQnjMtAxEM750HwDFv3GwwhW0UUQBYgSOtoa8EyqU9BmkOKOJcSdMRy8/nZs47ii0wPcURxJivCe8lsYfcoLAGNmnaZp8/cqaKS++dR7Hz3/5Q98bavXRm+wiPLOMeABNQTtw3AKBQQx5fGBwjoD2mQXkbYOhvF06LVHiLx7xiU52Q0ioYrK51wNJbGcfJT7bk2jtiQUaCCRZhVoqDQukaaTg+ZTSOP9cOhym0eaOKH7sMrgFu136kB0jAAqiLJGGNB0LcEg7SNMEth6AUUqiHHtpx0h7bg4tA+YccZgHr5V1mWSyhT2Fzfgwte8E6he/BhNK399LYA5q0gzfMID7/2dFzp7/+vvJpsN6GMpcHkFqdeEzi1MaOj6BtxxHc6FfVHvjKInwdnwZCBREq4JFPlK19sCHDlpysRXHL/Wel3n9+eGoJGB5TDS5FPuE0DzXYThatCoGoXL+1RooayIzcgxD8RH6Hg7Io57UbiMrNpBX/bMaAlaQDFdD/QcYKkDfzHDkf0pto3NAHP7pFA+MrkRo495OrzHPf9Fmrbxw2dzg9Zc06x+0hte9YQ/vX9r9o1GoY3OZAvly6aAbBGZqaPZMlAY0+HcPxZdXD/4ZbhbfxOIxsS8kwIDEmn0jsixs2MqoDlvbJizuZ35gVtAwxotjzSSnoagYUeYLQVGmhw0yX44VBSjsYWAJhEpPnp0mgMXOJYhPqLB5L687SGimHWlh14WCO2saJRQTKaBtgPM9jCYixA0baSdCKNlGy3Dwu3rt+Ehf/jWN2jGA8648L3z6fDs75H8huVXPuI90bEfXFPbOYFkLIC3KRVJEsOoAV4ClI8i8TwYxYcC5V8Cqo8BknEEUiQmYowhhE6234VvkgsAnKPXd6/+GhlY5gtMw0gjU+7hGIEk+BYQX4+w+zFY5gHhE4k+DS0CBgm8MQ1ZTwMWCkgXdWjkrFEdi5Kmjo5m1BWraipS2CR28eAwm6JzWwStYaLkVOA3uwjKJRytTGLL8//gvYWLfvMPzsV9OCeRZvhCZl92yUeSePG3Jzbb8LZlQo0Q+iInuoUuQBP38jpE2Alr/QuAdAah7tOiXPwblZMaUxO5x9wDV1IY97WHFMKrSFhSCEt3l6Dh6gmNXxsCmkBAc1B0+STX0Iykz4VD7qprSAmaugGzn0viU/jA1BByM5L9mYyblSbMvongYIjOXh16Q8douSqOfDdmBi570cv/Xrv0hb9zru7jOQUNX9Tuax74sdFi83nZOh+T2zl3ipG0FmQbwd40AkxE6PnrUNz0P4F0G0KzLSGWmn1GaMOksBHB4rD/cB8HjdgSUmOQ6YkPBRolo7YEJNfD730MtnVYFDsFNBSL6mawSkWgkSDk+aZjwGa+kk2FWMxgda8gPhPUqzFjC+ExH73DIbIlF1bPRLkygvkggf+IJ3x8y3PfddW5Asw5KYRP9WL2/eGDPzbv3/68XZdOoLIpA7qLCHwbzkwR2FJHqk1DH3s1YOxCbPpiWp4lZWiBA0e8lFnd3YdBI9oqahuBdE9OuSXSCGg4oOVKLiXqrsdAQDMLgwYapEAyO7fpjTAK1EP49R60QIdDKyKOYuJU/CVMhz7oFKisAG0djT1NJA0NFdSgBRYiikRtuvjjI3/8T+cUMPcYaPiLv/X7uz44NtK8euPmLkrj5MaMAlYL2HIMmKG1zjOQOg9CalOzxhVVS44eqJkrMiIOqZ+rFbfP5WflHv5dK+lJgUZUMXLWIWVUxFKxdxRIfoz+4BOwrSMwxc+apy0lv4c+h40hgq5aOHTMsrIjigyEAw6GKUESA0ER/nyG5X2cS7moOA66oYGWPvmhC971jRPWac/VVZ/z9HTCqeqVO95u27e9Zucl64CRTUD/IKJ187B2bUWUXIG0+FBosjhXEas9ndPbeAQw2Y9gp/M+Dpo8PR0HDbV3GIXYcJsF0h+j2/84HHsOFnfsxTBVA1o6sDgCtDNEYV1qatP0YOgFZLGNNCCFtoBsvoPuXIzBooao6cBJXXiWjoZR+YuN77rhtecKJPfY6emuXuD+Pxl/RXVk8Ncjk5MAScvj88imquiXL0ZWuRx28fHQQPGho6LbYsSbAKumBAaEkX8ffJyUnjLaNg4jjYgvB8hahxRoBp+A687DElNS7qZTJk0D9nOPjAIGESJSHgyalVCC3oJBmdleAYOjAXpzAQzu1Icmwn6K0fLYK42/+tk778m7do9GmuELv+FVpadNlPXPrKdm33QLzXAR1qat0KuXwy0+A5q5BQkWxRRUp9KnQZ8n/6QZfG6ilZeUx0nmq1daVjP21g44kVLVSHoXleTcj+rk5zn+tigqj2g3KEtx9ppEvp4t3aZoJysutKm4QzQL7P5Eappu99/gWXVYnGaLMLCpCAB3cAGeymEWUlB7mR8iDjDZ56mhuz9FvGRB7xgoWzVZiZ5fGjx94wdv/+d7EjD3aE1z8gu/47UXXDIxMfhw+X7RQzEZ4tByGxsuegyM0asA9zLArCD2e+gEiyhXCjBlwzJfxR2qnUvvhicqto1zVxfxElB+mCu7UkLA4veuDTg86qfaQDY2KfdBSwxhFg6fRzrW6vMmjiu5Pow6JdFdxUPWLcOh51LhoNpbF3UMDndZmxxDr/FhuM6t0MI5wF8WIzlxre1GSBZDRG0HrjkuQtRZr4s0bimVLNJtujbasxYaB0JsKW9GPHB+eLDZfeHOj+6+6Z4GzL0KmuHF7HuL88EtFxtXa+u4/TcKZ/OzgJHHImrPQK9MQXcHWOoew7hHl1jSC8jcz79kTzuvc8SZTikxKNOOHDxSSRJUdDVZK2giJCRJrQaNbAvk4JQdJbUuQ8CwwSaAkRkTE5GLpF+GZSSwnGPQBTQEsgeEFKe8A/3222EYNwCDCGacwDDJKzaAZoTBcoRuPcFIcVxEK4NuHw4B5VaApQEW9iwgaZiYHt2O1jI+VHvXz+6RgveuAHivpKeTn/zIHxd/e/1lvfejDDed2gh95smA93S0/A3SPh8pjUKLSC5fvXGp2vArxCyDoBgWynwTheK2opalBAHWxt4TTi8jlaQnXUTb1Dws/1qxviHNkmDJgZO7MBE2vmx02bJlYCOAhUXFH+quA7TbMOi9Can2fY6m4HJtllbLvQzdRoyEZMeoCJ12gl5f7KXTXhW9wxqyAxm8RgyrYProBC/RPrD49/dGdFn9HOcFNHwBu1+KrTse7b0TW5ynBs4GOOufCdQeiV7ESfgoXNlCVK73ChyrV3N5NB0qROQC13kqG1KFlWXz2h5ywNGoOpFXTspaUj1W/lQ1lkpPSnRAGXeJBAECUVm2YKLChgIs0lvZ1Gt7QHoT2v7boRk/g6vT08EB+g46iyH8jgYv9VBi5OQ0vMDaxkZvX4ylW3oYbZRRLqz7LMLgFdr7btu/tis8u586b6AZvuzeR0tXF3YV342JaRfTjwOcqzAIJ+GZ1NFjw4tbCSRskUPKYziVzAkoFppMSXkKI3ttJboMo9Ja9WnIslX6NkqwhLEjVyEXMIrSYp4G8/WR4/+ipGBlR53RMoBNW2LJZX3EvQWEyQ/QHnwUXuEAqgyQqYt4QUPjaAgtLGDELSJszsGrTADhOPx9bcQHllEa6D5C7WXae7ofOru3/ex++ryDhi//2EcwUbrYfUtp8xVXY+KlgHWp6mUQLEMGn9Q19EoI8rWW3EBVKjOmMYKGKSVfnB8Cak33h54G/P2qqyt6OVKA59FN9rKGpzl1xhItHIlO+YyJKusRZcjpDkyerwfER+EH34Qffhth/C2UvWV49CDvG+gdzdCrx7AyB1WviCzoIWvrCI8WkM3FKPbDD8FPXqe9t8s8d14fvxCgGd6B7MYHPwKjT3wdSg/7VZTII2Z3OC8iScpKS2q1Rdx2ue7CyEMn86HbCKPAsM7h0XaNkUbMLFxkXBeW1DgEDYHDr2GkGZ4lhrUOI4yKTtKWoawpt9LI3RSBzB8hTT6A3uA6mGjS+RNavwJ/WUfA3kzMlsMAWmIh82vo3tFC8UjvPyoovFl7R+db5xUpq578Fwo0K+C56c+fhh2Pew3M0uVihi6f3vy4Soc5MQJgxGHKElOBvPoYKmLxsoZF8RputYCG8vFKbFFFmViJLSkB4+NAleJ4eNzP06LI80dK/dQfV4Dx5gD9q0ij96DbuQEVscQzkC6Z6C8mMANbyPgIMwRtHXv3dL5fitx3bPmz5RX93jVcyT3yI7+QoBleab3+6WeWC1vebDnjFymFqGGKYA+Hay95CpG0xSPyMD3loFlZWz3TeyeC9HnKUVFFAeZ4hOGpig+atotJKyxF7OYX+0nxcm6vOC2G9jD+Ba3upxCmX0PRqoPquf4xIF0CxvhyeSndcWB3ZU9rf/D62rVH/ulMX/W99f2/0KAZ3oTIv/WJURS9xCuVf4PA6fe6KBSnc+Dki/YkpefH5OMnrbVd3nA9XB2UTiERr+xelX5/oonAuABHog5LmxRa0VA6uGEVsPYCzv9GEH8FsX87nMhH72CEEtv//RhoZuQBfw7z+ID2evz7vfXmr/V51nZX1/psZ/lz7fYPd/hd5wW1kckXWq4xsXKCkQJidY+GhKXhm33mT6o2JNQYgfBQ4Dk+oiBg0pSS87KJnqs7MOzkzyvmrUrgCelBRNHXEOMTSAc/QNIIoNWBsl8DWrVFLNofxkL3o9prj9525q/0/PzEfQo0q29Rli1eCcT/HcieP5ROZeGq3l71pq+1uTc0+VLTpKE40iopN4ImSURun4dzBav8+cSr3BLvT8toQcMPkPj/iaR5HYzWQaTHIiRz+EfXH/mU9tuNz5+ft/3snvU+C5qVopl+PuhcmaZ4sqbh6uGJSWqQNYsAsD2nTmGsbQjK4Z8rMyeSw8mLoU1yyrUb7h9R0pYGneqEleB2xP6/I569HsWFwYfQcb+EJ970ubxveHbv3Hn86fs8aE6+d1nWvQTQHwUkDweyXxGDqTN+DFObKoiZ+qRZl0cd/msY9MRGyDJCaExDUlMN66rGLHDHt3H0B9+Z3/PNr697zB03n/FL+AX+gf/vQHNnEPXWA/GlgEZlhF2A9igq69z9e6JqFdXZZaQ5secThgM4VgxdHxwCOt8A2rcgWLip32n8pDjxnKN3//vvu9/x/wCdcaMsC1PoAAAAAABJRU5ErkJggg==;" vertex="1" parent="1">
                    <mxGeometry x="630" y="503" width="75" height="67" as="geometry"/>
                </mxCell>
                <mxCell id="73" value="&lt;font color=&quot;#ffffff&quot;&gt;burn token(s)&lt;/font&gt;" style="edgeStyle=none;jumpStyle=none;html=1;dashed=1;labelBackgroundColor=none;strokeWidth=2;" edge="1" parent="1" source="19" target="72">
                    <mxGeometry x="-0.1574" y="-34" relative="1" as="geometry">
                        <mxPoint as="offset"/>
                    </mxGeometry>
                </mxCell>
            </root>
        </mxGraphModel>
    </diagram>
</mxfile>